<svg id="Layer_1" data-name="Layer 1" xmlns="http://www.w3.org/2000/svg" viewBox="0 0 595.28 841.89"><title>KIIT MUN Logo</title><path d="M129,381.81a32,32,0,0,0,.92,4.95c.52,3.11,1,6.24,1.38,9.37.65,5.4,1.14,10.81,1.84,16.2A54.58,54.58,0,0,0,137,427a10.41,10.41,0,0,1,.43,1.24c0,.12,0,.28-.09.52a9.23,9.23,0,0,1-3.94-2.1c-4.46-3.2-9.16-6-13.48-9.43-5.62-4.41-10.82-9.19-14.42-15.5a35.41,35.41,0,0,1-4-12.26,27.28,27.28,0,0,1-.52-6.36c.19-2.5.23-2.58,2.7-2.58H331.26c2.95,0,3-.69,2.81,3-.82,12.42-6.41,22.35-15.91,30.22-5.43,4.49-11.37,8.23-17.22,12.12-1.06.71-2.14,1.39-3.39,2.21a20.08,20.08,0,0,1,1.47-3.88c2.5-7,3.33-14.25,3.94-21.59.56-6.58,1.09-13.18,2.7-19.61.26-1-.06-1.36-1-1.33-3.68.09-3.38-.71-4.4,3.23a85.25,85.25,0,0,1-6.81,17.81,85.7,85.7,0,0,1-37.12,36.78,89.15,89.15,0,0,1-18.51,6.86,82.79,82.79,0,0,1-26.89,2.21,86.76,86.76,0,0,1-26.58-6.58c-15.12-6.42-27.11-16.64-36.64-29.82a73.63,73.63,0,0,1-10.32-20.27,82,82,0,0,1-2.47-8.43c-.35-1.63-.53-1.77-2.23-1.8A13,13,0,0,0,129,381.81Zm89.21,16.62-.22.48h-5a8.16,8.16,0,0,1-2.87-2.63c-1.35-1.68-1.45-2.87-.34-4.76l1.33-2.25c.34-.78,1.44-.19,1.78-1a18.72,18.72,0,0,1,3.59-2.57c-2.18-1.45-2.18-1.46-1.09-2.86.82,0,1.82.22,1.73-1.16q-8.53-.32-17.05,0c-.48.3-.36.82-.45,1.26l-.42-.23a2.14,2.14,0,0,0-1.2-1c-3-.59-5.94.08-8.91-.1-.85-.05-.94.53-.71,1.17a15.84,15.84,0,0,1,1.15,5.51,1.46,1.46,0,0,0,.89,1.39l0,1.7a3.52,3.52,0,0,0,1.19,1.49c1.23,1,2.46,2,3.69,3-.13.45-.81.33-.88.84a1.31,1.31,0,0,1-1.13.91,23.85,23.85,0,0,0-4.66,1.23,2.69,2.69,0,0,1-2.74-.26,2.92,2.92,0,0,0-2.08-.55c-.54-.25-.22-1.12-.9-1.27a4.73,4.73,0,0,0-2.06-.43,5.38,5.38,0,0,1-3.16-1c-.58-.62-1.34-.24-2-.36-.74-.79-1.31-2.1-2.41-2.07a2.66,2.66,0,0,1-2.57-1.66c-.82-1.45-2.19-2.31-3.26-3.5-.86-1-1.64-1-3.05-.76a1,1,0,0,1-1-.37c-.39-.41-.69-1.14-1.38-.72-.47.29-.2.94-.24,1.44s.4.79-.26,1.38c-1-1.89-2.77-3.29-2.14-5.72a.86.86,0,0,0-.26-1,2.77,2.77,0,0,0-3.14.16l-.79,0c-.63-.71-1.47-.56-2.26-.56H138.65l-1.32,0c-.68,0-.86.43-.77,1a10.42,10.42,0,0,0,.21,1.08,90.09,90.09,0,0,0,3.61,11.07,80.42,80.42,0,0,0,14,22.87A84.63,84.63,0,0,0,178.56,437a83.31,83.31,0,0,0,29.8,9.31,84.86,84.86,0,0,0,22-.38,80.93,80.93,0,0,0,20.43-5.88,79.3,79.3,0,0,0,15.45-8.7,86.74,86.74,0,0,0,22.23-23.71,88.41,88.41,0,0,0,10.33-24.36c.4-1.49.25-1.72-1.24-1.72-5.73,0-11.46,0-17.18.06-.53-.11-1-.62-1.62-.15l-11.7.13-1.17.1c-4.11-.33-8.23-.1-12.35-.12a1.44,1.44,0,0,0-1.68-.11l-8.22.15-.26.42c-.57.81-.3,1.79-.58,2.66-.59.57-1.31,1.08-1,2.15a2.08,2.08,0,0,0,1.66-2.05c1.46-.87,1.84-.71,2,.87a15.45,15.45,0,0,1-.1,1.71c0,.93-.08,1.86-.08,2.79,0,.66.46.29.75.27.38.19.42.56.48.92l.06.45c-.55.09-1.26-.14-1.44.7-1.26,1.64-1.21,1.93.45,2.71,2.27,1.06,2.47,1.59,1.36,3.81-.51,1-1.29,2-.44,3.19a.87.87,0,0,1-.19,1c-.83.92-.68,2-.67,3.11,0,.53.7.46.86.88-.55.35-1.08.72-1.64,1a38.4,38.4,0,0,1-8.95,4.27c-.48-.08-1,0-1.33-.55a1.34,1.34,0,0,0-1.21-.8c-1-.54-2.1-1-3.1-1.62a3.26,3.26,0,0,1-1.85-3.83,2.6,2.6,0,0,0-1.27-3c-.52-.57-1.19-.31-1.81-.32l-.44-.46c0-2.74,0-2.74-2.67-3.11a3.68,3.68,0,0,1-.42-.1.49.49,0,0,0-.57-.22l-.78-.26A1.66,1.66,0,0,0,218.24,398.42ZM224,383.49c-.58-.17-1.07-.73-1.77-.47l0,0c.12-.47-.15-.69-.55-.74a3,3,0,0,0-2.84,1.67c-.54,1.14-.16,1.81,1,1.57a3.81,3.81,0,0,1,3.42.86,2.57,2.57,0,0,0,3.29,0,11.59,11.59,0,0,1,3.67-1.92,5.19,5.19,0,0,0,1.57-1.16c.34-.28.62-.68.25-1.14a.88.88,0,0,0-1.19-.19,4.28,4.28,0,0,0-1,.47,1.36,1.36,0,0,1-2.12,0c-.46-.43-.6-.25-.84.32-.43,1-1.08.11-1.64,0-.31-.82-1-.84-1.68-.85,0,.78.84.75.94,1.23S224.22,383.41,224,383.49Zm-98,31c.49.52.57,1.47,1.79,1.57a6.64,6.64,0,0,0-1.38-2.44,29,29,0,0,1-2.09-8.65,48.24,48.24,0,0,1,1-14.44,66.27,66.27,0,0,0,1.14-6.72c.27-2.24.07-2.35-2.21-2.2-.61,0-1.15.05-1.37.8-1.37,4.79-3,9.53-2.37,14.66a6.59,6.59,0,0,1-.53,4.37c-1.51-1.58-2.34-3.47-3.54-5.09-3.23-4.34-7-8.29-9.68-13a3.26,3.26,0,0,0-3.57-1.74c-.92.06-1.2.44-.89,1.25a31.55,31.55,0,0,0,2.12,4.33c3.33,5.84,7.95,10.66,12.44,15.57A78,78,0,0,1,126,414.46Zm188.9-15.3a35.6,35.6,0,0,1-.36-6.67,30.27,30.27,0,0,0-1.39-8.87c-.57-2.09-.73-2.13-2.92-2-1.53.06-1.68.13-1.47,1.67.43,3.2.85,6.41,1.51,9.56A34.38,34.38,0,0,1,309,411.86c-.16.44-.51.88-.06,1.44a8.2,8.2,0,0,0,.58-.67A157.57,157.57,0,0,1,323.88,395a40.63,40.63,0,0,0,7.32-10.36,18.35,18.35,0,0,0,.83-2.26c.13-.4-.06-.66-.51-.78a3.67,3.67,0,0,0-4.35,1.55c-3.2,5.08-6.92,9.78-10.47,14.6C316.31,398.28,316.06,399.14,314.91,399.16Zm-81.14-14c1.92.73,3.62,2.08,5.91,1.77A5.76,5.76,0,0,0,233.78,385.16Zm85.65-.45c.9-.86.65-1.85,1-2.59a.46.46,0,0,0-.36-.65.56.56,0,0,0-.68.4A5,5,0,0,0,319.43,384.7Zm-204.1-.33a4.59,4.59,0,0,0,.14-2.38.41.41,0,0,0-.42-.39c-.26,0-.38.17-.4.4A3.34,3.34,0,0,0,115.33,384.37Z"/><path d="M290.35,461.43a1.51,1.51,0,0,1-.69,2,47.54,47.54,0,0,1-10.82,6.66,30.43,30.43,0,0,1-21.3,1.06c-4.88-1.57-9.15-4.21-13.41-6.94-3.33-2.13-6.46-4.6-10.08-6.23a13.08,13.08,0,0,0-8.08-1.14c2.55,1.55,4.71,2.85,6.86,4.18a82.53,82.53,0,0,1,16.71,13.1c.3.32.62.62.88,1a1,1,0,0,1-.12,1.56c-1.24,1-2.51,2-3.74,3-.6.51-.89.1-1.26-.28-1.48-1.52-3-3-4.45-4.54a92.49,92.49,0,0,0-15.5-13.18c-1-.65-2-1.21-3-1.79-2.77-1.6-5.48-1.15-8.14.39a72.37,72.37,0,0,0-14.34,11.2c-2.26,2.21-4.43,4.51-6.63,6.78a5.76,5.76,0,0,1-1.66,1.45,45.5,45.5,0,0,1-3.75-3c-.91-.65-.64-1.09-.06-1.74a68.07,68.07,0,0,1,10.12-9.08,106.76,106.76,0,0,1,12-7.74c.56-.31,1.07-.72,1.89-1.29a7.92,7.92,0,0,0-3.83-.3,20.24,20.24,0,0,0-7.35,2.78c-4.36,2.7-8.49,5.74-12.94,8.29A34.17,34.17,0,0,1,172,472.42a30.19,30.19,0,0,1-14.88-3.31,51,51,0,0,1-8.95-5.94,3.2,3.2,0,0,1-1.19-1.73,8.88,8.88,0,0,1,3.9,1.08,31,31,0,0,0,22.59.07c5-1.8,9.85-4.16,14.84-6.08a50.63,50.63,0,0,1,16.27-3.58,45.19,45.19,0,0,1,11.35,1.32,14.47,14.47,0,0,0,6.74-.07,39,39,0,0,1,19.82.24,133.09,133.09,0,0,1,16.27,6c3.31,1.37,6.57,3,10.11,3.67,5.86,1.1,11.71,1,17.33-1.31C287.57,462.21,289,461.89,290.35,461.43Z"/><path d="M147.46,438.5c-1.73-2.16-3.76-4.08-5.11-6.56a36.67,36.67,0,0,1-3.47-10.61c-.94-4.75-1.73-9.53-2.67-14.28-.34-1.71-1.11-3.32-1.29-5.28,1.72,1,2.57,2.55,3.55,3.92a73.79,73.79,0,0,1,9.1,17.22c1.88,5,3.35,10.15,5.8,14.93a25.14,25.14,0,0,0,4.44,6.48,4.91,4.91,0,0,1,1.78,2.94,7,7,0,0,1-3.58-.08c-4.65-1-9.28-2.16-13.95-3.12A40.78,40.78,0,0,1,121,432.55a51.61,51.61,0,0,1-9.32-12.68,24.56,24.56,0,0,1-2.52-7.62,3.09,3.09,0,0,1,1.72,1.62c2.71,4.75,6.94,7.86,11.45,10.66,4.91,3,10.17,5.46,15.17,8.35,3.24,1.87,6.22,4.11,9.29,6.23a3.27,3.27,0,0,0,2.09,1.45A2.32,2.32,0,0,0,147.46,438.5Z"/><path d="M290.27,434.73a3.33,3.33,0,0,0-.17.33,18.66,18.66,0,0,0-3.76,4.54,9.73,9.73,0,0,0,3.84-2.76c5.11-4.1,10.89-7.08,16.66-10.1,4.92-2.58,9.75-5.33,13.68-9.38a35.91,35.91,0,0,0,3.67-4.63,5,5,0,0,1,1.6-1.77,5.72,5.72,0,0,1-.42,3.55,36.5,36.5,0,0,1-3.67,7.46,50.13,50.13,0,0,1-12.83,14,42.16,42.16,0,0,1-9.85,5.24,117.85,117.85,0,0,1-20.63,5.29c-.58.1-1.16.16-1.75.21-.12,0-.24-.11-.5-.24a9.44,9.44,0,0,1,1.53-2.57,45.79,45.79,0,0,0,6.78-12.72c2-5.13,3.52-10.39,5.67-15.45A66.92,66.92,0,0,1,296.94,404c.62-.9,1.32-1.75,2-2.63a1.22,1.22,0,0,1,1.26-.61c-.49,2.24-.86,4.46-1.49,6.61-.94,3.18-1.22,6.48-1.91,9.71a76,76,0,0,1-2.61,10.43,25.29,25.29,0,0,1-3.55,6.76A.41.41,0,0,0,290.27,434.73Z"/><path d="M264.71,451.15a15.17,15.17,0,0,0,4.15-.33c5.58-1,11.22-1.38,16.83-2.07a50.77,50.77,0,0,0,14.48-3.48,26.64,26.64,0,0,0,6.35-4.26l2-1.68A11.33,11.33,0,0,1,306.8,443a29.58,29.58,0,0,1-7.24,7.6,43,43,0,0,1-10,5.79,37.7,37.7,0,0,1-16.21,2.3c-6.05-.33-11.86-2-17.71-3.29-2.5-.57-5-1.19-7.49-1.79a3.21,3.21,0,0,1-1.52-.66,6.33,6.33,0,0,1,2.82-1.55c5.53-1.28,10.06-4.33,14.11-8.14,5.59-5.26,11.08-10.62,16.82-15.72.84-.75,1.59-1.68,3-1.83a12.4,12.4,0,0,1-1.47,4,106.31,106.31,0,0,1-6.38,12.5c-2.23,3.8-5.79,6.12-9.74,7.87a2.59,2.59,0,0,0-1.29.77c-.38.08-.81,0-1.16.5A1.69,1.69,0,0,0,264.71,451.15Z"/><path d="M129.23,443c.83-.06,1.31.62,1.89,1a34.15,34.15,0,0,0,12.59,4.8,8.49,8.49,0,0,0,4,.56l.75.15a1.77,1.77,0,0,0,1.4.49c2,.17,3.93.41,5.9.47s4,.83,6.1.47l.86,0c1.5.74,3.15.43,4.71.63,2.11.27,4.18.93,6.59.91-1.26-1.36-2.73-1.38-4.13-1.58l-.53-.18c-.11-.76-.69-.72-1.24-.72l-.08,0a.76.76,0,0,0-.78-.44l-.53-.42a.75.75,0,0,0-.82-.43l-.06,0a.43.43,0,0,0-.41-.38,29.82,29.82,0,0,1-7.83-9.64c-2.09-3.76-3.83-7.72-5.71-11.6-.09-.18-.24-.38,0-.64,2.91,1.53,5.21,3.88,7.65,6,4.71,4.18,9,8.78,14,12.71,4.69,3.74,9.81,6.64,15.79,7.77.13,0,.23.15.55.36a20.75,20.75,0,0,1-4.94,1.5c-6.48,1.58-13,3.16-19.53,4.34-9.22,1.64-17.75.29-25.66-4.92A38.65,38.65,0,0,1,128,443.07Z"/><path d="M332.22,349.51c-.06.46-.39.58-.78.6-.66,0-1.32,0-2,0H104.69c-2.26,0-2.46-.43-1.3-2.6.36.51-.21,1.4.95,1.84-.55-.91,0-1.85-.77-2.49a2,2,0,0,1,.69-1.75c.64.52.36,1.21.38,1.82,0,1.82.22,2,2,1.88a4.69,4.69,0,0,0,.84-.21.93.93,0,0,0,1,.9h6.05a.78.78,0,0,0,.87-.75,4,4,0,0,0,1.83,0c.15,1,.91.77,1.54.78,2.41,0,4.82,0,7.24,0,.5-.13.92-.52,1.48-.43a28.69,28.69,0,0,1,5.5,0,2.17,2.17,0,0,0,2.66,0l.66,0q8.47-.19,16.94,0c.41.06.79.05,1-.38h0a2.59,2.59,0,0,0,1.9.38q5.14-.2,10.29,0l.52-.11.39-.32.87.07a.18.18,0,0,1,.13.19l.6.18c3.58-.15,7.16-.11,10.75,0h2.44c3.86,0,7.72,0,11.59-.05.88,0,1.76.07,2.34-.78.46.15.55.78,1.09.83,1.3,0,2.6,0,3.9,0a.68.68,0,0,0,.78-.78l.58-.06c.72.29,1.24.91,2.16.89q5.65-.14,11.29-.08c1.25,0,1.43-.57,1.41-1.6-.05-3.06,0-6.12,0-9.19l.08-1.41,0-11.87c0-.23-.07-.39-.35-.33l-1.43.07a2.52,2.52,0,0,0-2.59.17l-.48,0c-.71-.14-1.51.26-2.14-.36.71-.22,1.56.16,2.17-.5l1.79-.15c1,0,2.1.55,3-.42q0-5.63,0-11.25V311q0-5.64,0-11.27c-1.43-.89-2.89-.54-4.36-.11l-2.23,0c-.59-.11-1.29.21-1.73-.46a6.77,6.77,0,0,1,3-.51h10.69a65.13,65.13,0,0,1,15.69,3.1,61.72,61.72,0,0,1,17.84,9.3,65,65,0,0,1,24.41,36.06c.45,1.65.45,1.67,2.26,1.68q7.71,0,15.43,0a13.27,13.27,0,0,0,1.52-.17c.06.75.55.91,1.17.79s1.06-.27,1.6-.42a26.46,26.46,0,0,1,5.47,0l1.07,0c.1.1.19.28.3.29a77.36,77.36,0,0,0,8.24.1c.43,0,.56-.39.64-.76l.91,0c.11.92.81.84,1.45.84l6,0a.46.46,0,0,0,.42-.37l.1-.09C328.94,348.77,330.54,349.61,332.22,349.51Zm-109.56-11.9h0c-.05.4.86.3.46.88a4.44,4.44,0,0,1-1.92-.28,2,2,0,0,0-1.19-.14c-1.84.13-1.88.13-1.89,1.54,0,2.71,0,5.43,0,8.14,0,.79.27,1.16,1.14,1.23a5.65,5.65,0,0,0,4.31-1.11c.91-.78,1.35-.91,1.36.51,0,.45.4.52.78.57a3.38,3.38,0,0,0,3.45-1.43c.36-.51.54-1.28,1.44-1.09l-1.29,2.5a4.9,4.9,0,0,0,4.11-1.82.58.58,0,0,0,.11-.77.76.76,0,0,0-.78-.23c-.61.07-1.12.77-1.82.31,1.24-1.74,1.24-1.74,3.11-1.2.33.1.76.33.85-.23,0-.24-.21-.52-.34-.78l.51-.47.36.34c.26.72.91.54,1.45.61.44,1.94,2.17,2.83,3.41,4.09a.84.84,0,0,0,1.42-.37c.15-.35.7-.69.83-.42.9,1.92,2.52.76,3.78.91a43.79,43.79,0,0,0,5.15,0c-.09-.9-.6-1.14-.92-1.52-1.52-1.8-1.53-1.79.48-3,.09-.05.1-.25.14-.38-1.81-1.38-2.27-1.7-2-2.58.31-1.05-.42-1.24-.87-1.72a1,1,0,0,0,.9-.5c.74.77,1.31,1.66,2.53,1.9a1.43,1.43,0,0,1,1.15,2c-.15.44-.25,1,.16,1.22,1.52.87,1.86,2.34,2.19,3.86.06.28.18.6.55.57.53,0,.47-.42.42-.8-.1-.76-.66-1.56.27-2.3a5.34,5.34,0,0,1,1.09,2.81c.28.71.87.53,1.41.46h6.82c.89.34,1.36-.29,1.88-.81.57.78,1.42.64,2.21.64h7.48c2.58,0,2.69-.16,2.11-2.59-.05-.21-.13-.42-.2-.63a69.3,69.3,0,0,0-4.63-11.58,60,60,0,0,0-10.34-14.36c-.77-.78-1.23-1-2.1-.12-2.1,2.23-4.3,4.38-6.46,6.56.07-.67-.67-.82-.85-1.33a1.29,1.29,0,0,0,1.21-.32c2.08-2.15,4.18-4.29,6.34-6.51a44.16,44.16,0,0,0-8.84-7.54,66.37,66.37,0,0,0-15.49-7.6,59.44,59.44,0,0,0-15.43-3.18,5.8,5.8,0,0,0-4.42,0,112.22,112.22,0,0,0,0,11.51l0,.87a99,99,0,0,0,0,11.45c.81.76,1.73.44,2.63.28l1.77.16c.78.72,1.75.36,2.64.43v0c-.77.79-1.76.24-2.63.43l-2.2-.08a.57.57,0,0,0-.93-.07l-.82,0c-.26-.21-.41-.12-.48.18a117.84,117.84,0,0,0,0,12.3C219.63,338.14,221.2,337.41,222.66,337.61Zm15.73,11.1c-1.89-2-3.4-1.92-4.89.1,1,.66,1.52-.64,2.37-.54S237.25,349.48,238.39,348.71Z"/><path d="M302.62,349.06c-.53.14-1.06.32-1.6.42s-1.11,0-1.17-.79c-.25-1-.53-2-.74-3a78.46,78.46,0,0,0-11.35-27.43,84.5,84.5,0,0,0-30.88-28.33,86.89,86.89,0,0,0-16.29-6.52A75.09,75.09,0,0,0,224,280.35a85.62,85.62,0,0,0-30.47,3.3,79,79,0,0,0-18.37,8.23A95.76,95.76,0,0,0,162.75,301a79.08,79.08,0,0,0-18,22.16,85.47,85.47,0,0,0-6.58,15.53,57.55,57.55,0,0,0-2.45,10.24l0,.16a2.17,2.17,0,0,1-2.65,0c.7-.33.8-1,.92-1.65.56-3,1.35-5.85,2.2-8.73a79.47,79.47,0,0,1,7.76-17.89,83.47,83.47,0,0,1,15.19-19.22,84,84,0,0,1,57.5-23.24A84,84,0,0,1,239,281c18,4.58,32.64,14.37,44.55,28.46a79.58,79.58,0,0,1,13.18,22.18,94.36,94.36,0,0,1,4.6,15.58C301.55,348,301.58,348.87,302.62,349.06Z"/><path d="M311.27,325.33c-1.77-5.82-3-11.78-4.92-17.57a23.38,23.38,0,0,0-5.26-9c-.43-.46-1.07-.76-1-1.66a15.77,15.77,0,0,1,5.91,2.81,24.84,24.84,0,0,1,10.87,19.24c.52,7-.22,14.06,0,21.11-.82.07-.9-.58-1.17-.93-3.48-4.49-7.86-8.06-12.14-11.71-3.51-3-7.1-5.87-9.85-9.64a26.41,26.41,0,0,1-4.57-10.35,9.34,9.34,0,0,1-.14-1.31,2.85,2.85,0,0,1,.07-.57.46.46,0,0,1,.63.13c3.06,4.3,7.22,7.43,11.29,10.66a53.87,53.87,0,0,1,9.41,8.83,4.82,4.82,0,0,0,1.44,2.15C312.44,326.42,311.57,326,311.27,325.33Z"/><path d="M117.78,342.46c0-4.75,0-9.07,0-13.39,0-3.16-.15-6.31-.08-9.47.17-7.4,3.73-12.94,9.22-17.47a12.4,12.4,0,0,1,5.45-3.08.73.73,0,0,1,0,1.19c-2.88,3-4.31,6.8-5.42,10.67-1.44,5-2.6,10.08-3.87,15.12-.12.47-.33,1,0,1.43a1.1,1.1,0,0,0,.92-.6c2.54-3.77,6-6.54,9.61-9.23a43.11,43.11,0,0,0,8-7.1c.78-1,1.51-2,2.28-2.94a1,1,0,0,1,1-.5c.11,2.46-.81,4.69-1.71,6.88-1.85,4.49-5,8.06-8.45,11.35s-7,6-10.21,9.32A97.85,97.85,0,0,0,117.78,342.46Z"/><path d="M233.25,481.87c1-.08,1.27.53,1.15,1.39-.66,4.67-2.52,8.65-6.36,11.6-5,3.84-13.4,3.86-18.37.14a16.31,16.31,0,0,1-6.52-11.52c-.09-.69-.31-1.52.88-1.61.89-.07.67-.83.67-1.37,0-2.79,0-5.58,0-8.37,0-.51,0-1,0-1.54s.15-.75.58-.82a12.2,12.2,0,0,1,3.51,0c.42.06.51.48.52.86,0,.73,0,1.46,0,2.35.95-.43,1-1.23,1.32-1.84a2.27,2.27,0,0,1,2.4-1.49c1.67.12,3.35.08,5,.1,1,0,1.51,1,2.33,1.07s1.28-1.17,2.26-1.14a.45.45,0,0,0,.22,0c1-.55,1.52,2,2.88.27.63-.78,2.24-.2,3.41-.24s2.35,0,3.52,0c1.84,0,1.84,0,1.88,1.81,0,.44,0,.88,0,1.32.05.78-.17,1.32-1.07,1.26s-1.22.54-1.21,1.39c0,1.83,0,3.67.07,5.5.29,1.37-1.11,2.15-1.19,3.39a9.9,9.9,0,0,1-1.16,3.52c-4.1,8.71-15.63,9-20.91,2.55a13.25,13.25,0,0,1-2.82-6.1c-.09-.47-.17-1.16-.87-1s-.45.78-.38,1.24a13.29,13.29,0,0,0,10.75,11.36c8,1.63,15.52-3.24,16.66-11.54A4,4,0,0,1,233.25,481.87ZM220,483.17l-8.82,0c-.77-.66-.79-1.83-1.61-2.63-.46.87.19,2.09-.49,2.37-2.07.85-.94,2.18-.56,3.22a10.2,10.2,0,0,0,8.23,7c5.45,1,11.6-2,12.62-8.82.47-1.34.47-1.34-1.41-1.53,0-.87,0-1.74,0-2.6-.11-1.94.27-3.89-.22-5.82-.61-.85-2,.15-2.47-1.08-.32.26-.86.48-.91.78s.5.31.83.35c.3,2.48.07,5,.14,7.46,0,1-.41,1.29-1.32,1.26s-1.76,0-2.64,0a18.08,18.08,0,0,1-.09-8.57,1.22,1.22,0,0,0-.41-1.4c-.4-.34-.59.15-.84.39-.41.4-.63.66.09,1,.53.27.35.91.35,1.4,0,1.83,0,3.65,0,5.48a2.47,2.47,0,0,1-.42,1.66Zm9.31-5.88h0q0,1.64,0,3.29c0,.68.26,1.15,1,1.11s.7-.62.7-1.13c0-1.83,0-3.65,0-5.48,0-1.19-.19-2.44,1.68-2.28.51,0,.69-.45.67-.94s-.19-.9-.73-.91c-1.61,0-3.21,0-4.82,0a.73.73,0,0,0-.79.83c0,.49.14.91.7.89,1.49-.06,1.64.85,1.57,2C229.27,475.53,229.31,476.41,229.31,477.29Zm-14.92-6.16c-1.94-.13-1.94-.13-2.52.69-2.82,4-2.78,4.62-.44,9,.69,1.29,1.4,1.1,2.54.8-.61-1.35-1.07-2.59-1.72-3.71a2.21,2.21,0,0,1,0-2.76A12.89,12.89,0,0,0,214.39,471.12Zm-6.3,5.27h0c0-1.39,0-2.78,0-4.17,0-.56.13-1.25-.77-1.28s-1,.49-1,1.14c0,2.92,0,5.85,0,8.77,0,.57.16,1,.83,1s1-.45,1-1.12C208.08,479.32,208.09,477.86,208.09,476.4Zm7.84,6.26c.56-3.07-.55-5.87.7-8.51.06-.12-.13-.4-.26-.57-.32-.42-.67-.83-1-1.28-.71,1.16-1.31,2.24-2,3.27a1.48,1.48,0,0,0,0,1.64Zm8-3.85h0c0-.73,0-1.46,0-2.19,0-.48-.11-.87-.69-.91s-1,.14-1,.81c0,1.46,0,2.91,0,4.37,0,.6.25,1,.92.93s.78-.51.78-1.05S223.94,479.46,223.94,478.81Zm-6.49-.16h0c0,.8,0,1.6,0,2.4a.75.75,0,0,0,.84.78c.53,0,.81-.24.81-.77,0-1.53,0-3.06,0-4.58,0-.53-.33-.76-.85-.76s-.83.21-.84.75C217.45,477.19,217.45,477.92,217.45,478.65Z"/><path d="M197.42,481.84c.15,0,.29,0,.44,0,.94.08,2-.34,2.78.25s.28,1.66.48,2.5c1,4.53,2.83,8.6,6.7,11.5a17.54,17.54,0,0,0,27.09-8.14,12.63,12.63,0,0,0,1-4.93c-.06-.83.32-1.19,1.17-1.18,1.84,0,3.67,0,5.51,0,.7,0,1.11.24,1.12,1s0,1.3-1,1.4c-1.46.17-2.9.43-4.35.63-.51.07-1,.06-1.17.75a1.24,1.24,0,0,0,.68,1.47c1.23.66,2.49,1.25,3.69,1.95.47.27,1.23.63,1.07,1.22a6,6,0,0,1-1.17,2.81c-.29.3-.69,0-1-.08a29.63,29.63,0,0,1-4.22-1.25c-.55-.25-1.12-.38-1.51.33s-.67,1.1-.13,1.79c.91,1.14,1.78,2.31,2.62,3.5s.65,1.85-.87,3.23c-.91.83-1.35.14-2-.38a28.78,28.78,0,0,1-2.43-2.22c-.62-.62-1.23-1.18-2.28-.51a1.8,1.8,0,0,0-.74,2.44c.4,1.25.81,2.51,1.12,3.79.35,1.44.17,1.48-1.61,2.29-1.14.52-1.6,0-2-.87-.53-1.13-1.09-2.24-1.56-3.39-.36-.88-.86-1.31-1.85-1s-1.94.19-2,1.57-.27,2.63-.42,3.94c-.18,1.55-.21,1.57-2,1.56s-1.74,0-1.9-1.66c-.1-1.1-.14-2.2-.18-3.3,0-.89.06-1.72-1.23-1.89-1.74-.23-1.77-.31-2.56,1.2-.55,1-1.15,2-1.63,3.11s-1.3.92-2.18.53-1.79-.66-1.3-2a23.72,23.72,0,0,1,1.18-3.77c.48-.86.12-1.28-.58-1.77s-1.34-1-2.13-.24c-1,.88-1.92,1.79-2.9,2.68s-1.33.84-2.2-.06a9,9,0,0,0-.69-.85c-.75-.6-.71-1.18-.13-1.87.84-1,1.61-2.08,2.48-3.07a1.37,1.37,0,0,0,.1-2c-.5-.65-.94-1.24-2-.77s-2.37.77-3.54,1.2c-.79.29-1.15.07-1.48-.73-1.07-2.63-1.11-2.62,1.42-3.94.52-.27,1-.61,1.55-.83.75-.31,1.21-.64,1.08-1.61s-.77-1.27-1.65-1.37c-1.09-.13-2.17-.38-3.26-.5-.92-.1-1.26-.52-1.21-1.43s.68-1,1.37-1Z"/><path d="M160.89,375.94a1.07,1.07,0,0,1-1,.37H150c-.21,0-.45,0-.52-.29,0-.48.51-.41.79-.57a1,1,0,0,0,.44-1.48c-1.83-2.83-4.1-5.33-6.19-8-.39-.49-.82-.12-1,.34a4.64,4.64,0,0,0-.13,1.3c0,1.54,0,3.08,0,4.62,0,2.71.05,2.75,2.47,3.64-1.23.5-9,.58-11,.11,2.84-1.06,2.84-1.06,2.85-4.34q0-6.83,0-13.65c0-.59,0-1.18,0-1.76-.14-1.59-.31-1.76-2-2.08-.34-.07-.76.06-.94-.39,1.18-.58,9-.68,11-.15,0,.07,0,.18-.06.19-2.29.4-2.48,2-2.38,3.91.09,1.68,0,3.38,0,5.06,0,1,.47,1.15,1.24.53,2.6-2.12,5.18-4.28,7.77-6.42.58-.48,1.15-1,.95-1.83s-1.1-.78-1.79-.92c-.22,0-.43-.11-.47-.38,1.18-.58,6.6-.67,8.77-.09-4.17,1.82-7.12,5.13-10.63,7.65-1,.69-.82,1.15-.2,1.91,2.67,3.29,5.3,6.62,8,9.92a12.26,12.26,0,0,0,3.83,2.81Z"/><path d="M296.92,377c-5.36-6.11-10.14-12.52-15.47-18.76a3.45,3.45,0,0,0-.27,1.85q0,5.62,0,11.23c0,3.1.37,3.59,3.28,4.56-1.25.49-5.2.57-7.57.16,0-.56.48-.41.79-.49a2.65,2.65,0,0,0,2.17-2.88c0-5.21,0-10.42,0-15.64a3,3,0,0,0-2.12-2.76c-.38-.17-.88-.1-1.1-.72a6.91,6.91,0,0,1,3.21-.25c4.92,0,4.92,0,7.94,3.84q3,3.8,6,7.59c.23.29.43.6.68.86s.5.56.93.37.39-.58.42-.93,0-.73,0-1.1c0-2.13.06-4.26,0-6.39s-.28-3.24-2.67-3.52c-.1,0-.17-.2-.26-.31a15.13,15.13,0,0,1,7.24,0c0,.07,0,.2-.07.2-2.5.38-2.72,2.14-2.7,4.2.06,5.51,0,11,0,16.52A3.42,3.42,0,0,1,296.92,377Z"/><path d="M277.57,286.33c1.59-.07,2.67.79,3.87,1.24a53.34,53.34,0,0,1,10.82,5.27,26.64,26.64,0,0,1,9,10.58,55,55,0,0,1,3.28,8.37,11.38,11.38,0,0,1,.59,4.61c-2.94-1.74-5-4.22-7.33-6.39a94.74,94.74,0,0,1-12.3-14.24,90.24,90.24,0,0,0-6.17-7.12C278.68,288,278.19,287.18,277.57,286.33Z"/><path d="M155.7,288a122.35,122.35,0,0,0-9.39,11.25,109.18,109.18,0,0,1-8.61,10.52c-2.14,2.19-4.37,4.3-6.61,6.38a2.78,2.78,0,0,1-2.19,1,6.56,6.56,0,0,1,.34-3.44c1.35-4.72,2.91-9.34,5.86-13.39a25.09,25.09,0,0,1,7.08-6.46,80.3,80.3,0,0,1,11.16-5.63A2.43,2.43,0,0,1,155.7,288Z"/><path d="M326.72,349.49l-6,0c-.65,0-1.34.08-1.45-.84l.38-5.74c.59-.43.59-.88,0-1.34.09-4.23.15-8.47.29-12.7a52.1,52.1,0,0,0-.71-12,1.24,1.24,0,0,0-.49-1.4l-.27-.78.84-.58,0,0a.51.51,0,0,0,.36.51l.38.55a.44.44,0,0,0,.4.37,38,38,0,0,1,4.91,9.28.36.36,0,0,0,.12.35,3.72,3.72,0,0,1,.45,1.62.54.54,0,0,0,.33.63l.15.48-.27.21.34.07a24.39,24.39,0,0,1,.85,5.16c-.19.58-.31,1.15.28,1.59a30.87,30.87,0,0,1,0,9.25c-.56.42-.46,1-.31,1.54l-.26,2c-.44.36-.33.84-.31,1.31A4,4,0,0,1,326.72,349.49Z"/><path d="M115.44,348.75a.78.78,0,0,1-.87.75h-6.05a.93.93,0,0,1-1-.9,33.78,33.78,0,0,1-.09-17.19,41.75,41.75,0,0,1,5.33-12.91c.62-1,1-2.14,2-2.88a.78.78,0,0,1,.8.42l-.24.38c-.4.55-.84,1.08-.64,1.84a13.45,13.45,0,0,1-.47,3.92c-.57.45-.46,1-.26,1.58q0,3.05,0,6.1c-.18.71-.39,1.42.27,2a20.88,20.88,0,0,1,.39,4.42c-.41.31-.38.6,0,.87a14.78,14.78,0,0,1,.35,3.55,2,2,0,0,0,.24,2.66A30.84,30.84,0,0,1,115.44,348.75Z"/><path d="M273,354.87a4.45,4.45,0,0,0-.62,3c0,3.75,0,7.49-.08,11.24a7.83,7.83,0,0,1-.83,3.83,7.07,7.07,0,0,1-3.92,3.33,11.77,11.77,0,0,1-7.78.12,6.18,6.18,0,0,1-4.58-5.09,17,17,0,0,1-.22-2.85q0-5.18,0-10.36c0-3.27,0-3.27-2.85-4.17.81-.54.81-.54,3.55-.54,1.4,0,2.79,0,4.19,0a21.41,21.41,0,0,1,3.88.09c-.23.84-.73.7-1.14.77-1.67.31-2,.6-2.05,2.28,0,4.7-.08,9.4,0,14.1.06,2.57,1.22,3.89,3.29,4.3a5.47,5.47,0,0,0,6.07-2.45,7,7,0,0,0,.89-3.36c.06-4.48.12-9,0-13.44l-.19-.37-.32-.38a1.91,1.91,0,0,1,2.82-.62C273.15,354.35,273,354.66,273,354.87Z"/><path d="M204.91,376.23H193.47c-.16-.24-.14-.39,0-.44,2.63-.64,2.68-.68,2.68-3.35q0-7.82,0-15.64c0-1.94-.2-2.06-2.16-1.93a4.33,4.33,0,0,0-4.17,3.28c-.15.46-.06,1.06-1,1.34a28.5,28.5,0,0,1,0-5.59c0-.55.59-.57,1-.57h4.4c4.4,0,8.81,0,13.21,0,1.85,0,1.87,0,1.89,1.78,0,1.38,0,2.77,0,4.16-1,.15-1-.57-1.16-1.08-.88-2.5-2.35-3.45-5-3.35-.9,0-1.36.31-1.33,1.27s0,1.91,0,2.86q0,6.5,0,13C201.89,375.22,201.89,375.22,204.91,376.23Z"/><path d="M234.59,372.51l-.23.81a.79.79,0,0,0-.61,1.06,6,6,0,0,1-.2.85c-.15.38-.15,1-.76.89-.44,0-.46-.51-.6-.83q-3.76-8.77-7.52-17.54c-.1-.24-.11-.61-.69-.58a4,4,0,0,0-.15,1.8q0,6.5,0,13c0,2.76.16,2.93,2.93,3.76.09,0,.14.21.31.47h-7.54c-.14-.18-.13-.33,0-.39,2.68-.94,2.87-1.18,2.88-3.87q0-7,0-14.1c0-3.28-.06-3.41-2.89-3.78-.1,0-.17-.21-.29-.36.16-.12.33-.33.49-.33,2.64,0,5.28,0,7.93,0,1.08,0,1.39.84,1.64,1.53.86,2.34,2,4.57,2.92,6.87.33.81.65,1.63,1,2.45,0,.46,0,.93.42,1.23a.4.4,0,0,1,.1.36,2.64,2.64,0,0,0,.94,2.31c1.28.58.66,1.53.84,2.32a.31.31,0,0,1-.11.31.55.55,0,0,0-.36.5l0,0C234.48,371.46,234.56,372,234.59,372.51Z"/><path d="M175.11,353.47h11.45c0,.69-.37.71-.71.7-1.77,0-2.2.67-2.21,2.54,0,5.43,0,10.86,0,16.28,0,2,.27,2.23,2.39,2.67.22,0,.4.1.48.51H175.14c-.1-.22-.07-.39.11-.42,2.54-.52,2.69-.68,2.69-3.32,0-4.77,0-9.53,0-14.3C177.94,354.79,177.94,354.79,175.11,353.47Z"/><path d="M318.34,348.71c-.07.37-.21.75-.64.76a77.36,77.36,0,0,1-8.24-.1c-.11,0-.2-.19-.3-.29.68-.75,0-1-.48-1.32a48.61,48.61,0,0,1-9.57-20,44.9,44.9,0,0,1,5.14,4.46c3.8,3.81,7.8,7.44,11.14,11.69a8.81,8.81,0,0,1,1.67,2.55.76.76,0,0,0,.47.87,1,1,0,0,1,.45.81.56.56,0,0,0,.34.55Z"/><path d="M160.89,375.94V376c4.12-.92,3.57-.73,3.61-4.81,0-4.55,0-9.09,0-13.64,0-2.78,0-2.78-2.68-3.51-.11,0-.17-.21-.26-.32,1.27-.5,9.72-.58,11.56-.1,0,.51-.42.49-.75.56-1.94.4-2.17.59-2.19,2.58,0,4.4,0,8.8,0,13.2,0,1,0,1.91,0,2.86.06,2.18.26,2.4,2.48,2.83.21,0,.41.08.49.34-.06.42-.43.34-.68.34-3.23,0-6.45,0-9.68,0A5.78,5.78,0,0,1,160.89,375.94Z"/><path d="M126,349.49c-2.41,0-4.82,0-7.24,0-.62,0-1.39.2-1.54-.78l0-.07a.51.51,0,0,0,.37-.44,28.38,28.38,0,0,1,5.89-8.12c3.41-3.6,7-7,10.25-10.79.18-.22.33-.51,1-.28A33.91,33.91,0,0,1,130,342.47a.84.84,0,0,0-.47.78l-.06.06c-.83.13-.79.75-.78,1.36h0a.6.6,0,0,0-.39.56.3.3,0,0,1-.16.33l-.3.5a.36.36,0,0,1-.13.36C126.08,346.85,126.36,348.33,126,349.49Z"/><path d="M240.73,357.89a1.22,1.22,0,0,1-.34.95.84.84,0,0,1-.94-.86l.5-1.4a.49.49,0,0,0,.31-.51.52.52,0,0,1,.16-.37,1.64,1.64,0,0,0,.74-1.78h5.44c.57,0,1.18-.13,1.61.41l-.65.89c-.62.2-.65.7-.65,1.23q0,8.43,0,16.86c0,.77.08,1.48,1,1.74l.45.38c-.16.14-.31.37-.49.39a40.34,40.34,0,0,1-6,.08c-.42,0-.55-.39-.62-.76l.05,0a.46.46,0,0,0,.38-.39,16.39,16.39,0,0,0,.25-3.72q0-6.92.09-13.83c.07-.32.2-.7-.19-.87s-.55.19-.67.5l-.23.68Z"/><path d="M239.45,358a.84.84,0,0,0,.94.86,111.71,111.71,0,0,1-4.88,11.55c-.18-.79.44-1.73-.84-2.32a2.64,2.64,0,0,1-.94-2.31c.72.29.6,1.3,1.54,1.72.61-1.41,1.22-2.77,1.8-4.14A33.84,33.84,0,0,1,239.45,358Z"/><path d="M247.87,375.06c-.89-.27-1-1-1-1.74q0-8.43,0-16.86c0-.53,0-1,.65-1.23q0,8.85-.07,17.7A6.59,6.59,0,0,0,247.87,375.06Z"/><path d="M332.22,349.51c-1.68.1-3.28-.73-5-.48l-.07-.12h.65c2.34,0,2.33,0,2.5-2.38,0-.5.16-1,.25-1.48a.64.64,0,0,0,.55-.37l0,0A6.67,6.67,0,0,1,332.22,349.51Z"/><path d="M273,354.87c0-.21.18-.52.09-.6a1.91,1.91,0,0,0-2.82.62,3.91,3.91,0,0,0-2-.62c-.29,0-.6-.09-.62-.47a.5.5,0,0,1,.53-.55q3.47,0,6.95,0a.61.61,0,0,1,.45.38.5.5,0,0,1-.49.58A4.41,4.41,0,0,0,273,354.87Z"/><path d="M248.21,354.34c-.44-.53-1-.4-1.61-.41h-5.44a.74.74,0,0,1,.77-.63q3.84,0,7.67,0c.35,0,.78,0,.77.52s-.34.44-.63.46C249.23,354.28,248.72,354.3,248.21,354.34Z"/><path d="M241.2,375.16c.06.37.2.75.62.76a40.34,40.34,0,0,0,6-.08c.18,0,.33-.26.49-.39.69.2,1.46,0,2.13.41-1,.62-9,.79-11.91.22C239.43,375.38,240.48,375.68,241.2,375.16Z"/><path d="M129.23,443l-1.19.1a5.6,5.6,0,0,1-1.54-2.45C127.77,441.34,128.75,441.85,129.23,443Z"/><path d="M319.33,314.12l-.84.58-.89-2.62C318.66,312.77,319.24,313.24,319.33,314.12Z"/><path d="M126,349.49c.31-1.16,0-2.63,1.68-3.06,0,.62-.58.92-.83,1.42-.38.76.06,1,.63,1.21C127,349,126.54,349.36,126,349.49Z"/><path d="M115.19,343.39a2,2,0,0,1-.24-2.66A3.63,3.63,0,0,1,115.19,343.39Z"/><path d="M311.27,325.33c.3.63,1.18,1.09.55,2.16a4.82,4.82,0,0,1-1.44-2.15Z"/><path d="M115.52,316a.78.78,0,0,0-.8-.42,2.84,2.84,0,0,1,1.23-1.3C116.37,315.09,115.83,315.54,115.52,316Z"/><path d="M114.17,331.89c-.67-.59-.45-1.31-.27-2A1.89,1.89,0,0,1,114.17,331.89Z"/><path d="M103.57,346.88c.81.64.22,1.59.77,2.49-1.16-.44-.59-1.33-.95-1.84Z"/><path d="M113.91,323.77c-.2-.58-.31-1.14.26-1.58A1.35,1.35,0,0,1,113.91,323.77Z"/><path d="M241.16,353.92a1.64,1.64,0,0,1-.74,1.78C240.53,355,240.54,354.36,241.16,353.92Z"/><path d="M327.65,335c-.59-.44-.47-1-.28-1.59A1.34,1.34,0,0,1,327.65,335Z"/><path d="M327.32,345.77c-.14-.56-.25-1.12.31-1.54A1.2,1.2,0,0,1,327.32,345.77Z"/><path d="M319.67,341.59c.56.46.55.91,0,1.34A1.16,1.16,0,0,1,319.67,341.59Z"/><path d="M308.67,347.76c.48.32,1.16.57.48,1.32l-1.07,0C308.79,348.86,308.81,348.35,308.67,347.76Z"/><path d="M114.64,318.26c-.2-.76.24-1.29.64-1.84C115.31,317.12,115.34,317.82,114.64,318.26Z"/><path d="M128.72,344.68c0-.61-.05-1.23.78-1.36C129.35,343.84,129.29,344.4,128.72,344.68Z"/><path d="M318.76,315.49a1.24,1.24,0,0,1,.49,1.4C318.83,316.51,318.46,316.11,318.76,315.49Z"/><path d="M241.11,356.82c.12-.31.25-.69.67-.5s.26.55.19.87A1,1,0,0,0,241.11,356.82Z"/><path d="M233.76,374.37a.79.79,0,0,1,.61-1.06A1.19,1.19,0,0,1,233.76,374.37Z"/><path d="M114.6,337.18c-.42-.27-.46-.56,0-.87A.67.67,0,0,1,114.6,337.18Z"/><path d="M234.59,372.51c0-.52-.11-1,.49-1.34A1.73,1.73,0,0,1,234.59,372.51Z"/><path d="M233.63,365.4c-.46-.3-.43-.77-.42-1.23A1.49,1.49,0,0,1,233.63,365.4Z"/><path d="M327.18,348.91l.07.12-.1.09-.39,0c0-.47-.13-1,.31-1.31Z"/><path d="M317.53,347.3a.76.76,0,0,1-.47-.87A1.09,1.09,0,0,1,317.53,347.3Z"/><path d="M129.56,343.26a.84.84,0,0,1,.47-.78C130,342.83,130,343.14,129.56,343.26Z"/><path d="M325.52,325.23a.36.36,0,0,1-.12-.35,1.73,1.73,0,0,1,.19.22S325.55,325.18,325.52,325.23Z"/><path d="M326.3,327.47a.54.54,0,0,1-.33-.63A.67.67,0,0,1,326.3,327.47Z"/><path d="M326.52,328.23l-.34-.07.27-.21A.2.2,0,0,1,326.52,328.23Z"/><path d="M318.31,348.66a.56.56,0,0,1-.34-.55A.51.51,0,0,1,318.31,348.66Z"/><path d="M330.69,344.68c.14-.38.3-.43.48,0l0,0A2.91,2.91,0,0,0,330.69,344.68Z"/><path d="M128.32,345.25a.6.6,0,0,1,.39-.56Z"/><path d="M241.63,374.73a.46.46,0,0,1-.38.39Z"/><path d="M235.05,371.2a.55.55,0,0,1,.36-.5A.47.47,0,0,1,235.05,371.2Z"/><path d="M240.73,357.89l.15-.4C241,357.69,240.9,357.8,240.73,357.89Z"/><path d="M330.69,344.68a2.91,2.91,0,0,1,.44,0,.64.64,0,0,1-.55.37A.28.28,0,0,1,330.69,344.68Z"/><path d="M127.86,346.07l.3-.5A.5.5,0,0,1,127.86,346.07Z"/><path d="M240.26,356.07a.49.49,0,0,1-.31.51A.44.44,0,0,1,240.26,356.07Z"/><path d="M270.57,355.27l.19.37Z"/><path d="M320.49,315.6a.44.44,0,0,1-.4-.37A.36.36,0,0,1,320.49,315.6Z"/><path d="M319.72,314.67a.51.51,0,0,1-.36-.51A.45.45,0,0,1,319.72,314.67Z"/><path d="M117.68,348.22a.51.51,0,0,1-.37.44A.39.39,0,0,1,117.68,348.22Z"/><path d="M261.52,407.18l1.72,1.18a14.1,14.1,0,0,0,2.82-2.77,43.58,43.58,0,0,0,5.29-7.11.84.84,0,0,1,.7-.45c.76.83-.09,1.34-.44,1.87a61.81,61.81,0,0,1-12.2,13.67,64.7,64.7,0,0,1-17.79,10.7,58.13,58.13,0,0,1-20.12,4.28c-3.45.08-6.89,0-10.33-.18A5.43,5.43,0,0,1,209,428l2.56-.12,0-.32H208.1a1.1,1.1,0,0,0-1.76,0,53.49,53.49,0,0,1-19.85-6.77A64.41,64.41,0,0,1,166,403.21c-.4-.53-.75-1.09-1.12-1.63l.74-.15c.55.28.78.85,1.17,1.29,1.35,1.53,2.69,3.07,4.09,4.56.64.68,1.37,1,2.22.12q3-3.17,6.17-6.23c.71-.69.58-1.11,0-1.8-1.25-1.42-2.38-2.95-3.56-4.43.67.12,1.43-.26,2,.36-.07.12-.24.28-.21.34.66,1.41,1.9,2.35,2.87,3.51a.58.58,0,0,0,.8.05c.89-.59,2-1,1.76-2.44.68.16.36,1,.9,1.27-.57.84-1.54,1.38-1.85,2.52a46.45,46.45,0,0,0,10.58,8,49.59,49.59,0,0,0,22.82,6.37c1.91.06,1.93.07,1.94-1.9,0-2.64,0-5.28,0-7.92,0-1-.34-1.38-1.38-1.46-1.75-.14-3.47-.49-5.21-.75l.09-.69.61.19,1.11,0c1.16,0,2.33,0,3.48.12,1.37.11,1.28-.78,1.28-1.68s0-1.75-1.32-1.7c-1,0-2,.31-3-.26h5c0,.8.13,1.6.11,2.4s.38,1.33,1.31,1.27a23.44,23.44,0,0,0,5.42-.56l.44.46,0,.33-.85.2a2.76,2.76,0,0,0-1.83.3c-1.16.14-2.32.31-3.49.41-.63.06-.93.34-.93,1q0,4.62,0,9.24c0,.71.3,1.08,1,1.07a44.3,44.3,0,0,0,14-2.39c1-.34.39-.86.12-1.33a1.34,1.34,0,0,1,1.21.8c.3.59.84.47,1.32.55-3,1.59-6.2,2.12-9.45,2.63a45.38,45.38,0,0,1-7,.79c-1.14,0-1.3.61-1.29,1.54,0,2.86,0,5.72,0,8.58,0,1.53.09,1.69,1.68,1.48,4-.51,8-.52,12-1.53A77.85,77.85,0,0,0,243,422.43,64.12,64.12,0,0,0,258.29,413q1.45-1.17,2.84-2.4c1.47-1.29,1.46-1.3.31-2.84ZM216,427.56c1.32,0,1.32,0,1.2-1.73q.18-4,0-7.93c.09-1.81.09-1.81-1.64-1.78a5,5,0,0,0-2.42,0,4.37,4.37,0,0,0-2.45-.42.16.16,0,0,0-.24,0,1.06,1.06,0,0,0-1-.27l-2-.17a1.92,1.92,0,0,0-1.53-.32,58.86,58.86,0,0,1-14.79-6,65.43,65.43,0,0,1-9-6.64c-.88-.77-1.43-.9-2.37,0-2,1.86-3.94,3.7-5.74,5.72-1.38,1.37-1.38,1.37.07,2.46a27,27,0,0,0,5.21,4.42l.52.34a51.78,51.78,0,0,0,14.21,8.1,56,56,0,0,0,10.76,3.07.55.55,0,0,0,.59.21C208.94,427.14,212.49,427.27,216,427.56Z"/><path d="M245.6,406.4c.77.17,1.16-.44,1.69-.79a46.32,46.32,0,0,0,6.15-5.06l-.88-1.56,1-.07c.72.58,1.21.39,1.83-.3a62.17,62.17,0,0,0,5.94-7.87,55.46,55.46,0,0,0,4.54-9l1.17-.1a58.85,58.85,0,0,1-8.2,14.48,32.93,32.93,0,0,1-2.59,3c-.86.84-1,1.45,0,2.33,1.35,1.23,2.61,2.56,3.84,3.91.53.58,1.34,1,1.48,1.85l-.08.63c-1.86-1.09-3.13-2.82-4.62-4.29-2.84-2.79-2-2.61-4.92-.24a41,41,0,0,1-5.44,4C246.3,406.86,245.65,406.92,245.6,406.4Z"/><path d="M156,382.17c1.23,2.4,1.91,5,3,7.48a65.85,65.85,0,0,0,6.23,11,4,4,0,0,1,.34.8l-.74.15a60.69,60.69,0,0,1-9-17.35c-.24-.69-.44-1.39-.66-2.08Z"/><path d="M195.31,395.86c2.24,1,4.19,2.45,6.44,3.4a30,30,0,0,0,7.92,2.43,1.56,1.56,0,0,1,1.16.52l-.09.69c-3.65-.14-6.9-1.66-10.16-3.08a29.78,29.78,0,0,1-5.12-2.86,3.11,3.11,0,0,0-1-.26C194.5,396.19,195.18,396.31,195.31,395.86Z"/><path d="M273,396.29c1.17-2.43,2.45-4.82,3.47-7.31s2.35-4.74,2.29-7.48c.59-.48,1.08,0,1.62.15a84.65,84.65,0,0,1-5.41,12.79c-.46.82-1,1.6-1.5,2.37Z"/><path d="M200.1,381.71a5.84,5.84,0,0,0,2.38,2.51,28.33,28.33,0,0,0,6.77,3.59,6.83,6.83,0,0,0,3.67.48c-.34.78-1.44.2-1.78,1a23.28,23.28,0,0,1-11.49-6.3C199.74,382.53,199.62,382,200.1,381.71Z"/><path d="M190.46,389.68c2.77-2,4.84-4.67,7.33-6.94a1.21,1.21,0,0,0,.26-1,2.14,2.14,0,0,1,1.2,1l-8.8,8.63Z"/><path d="M246,390.5a45.85,45.85,0,0,0,4.89-6.38,4,4,0,0,0,.95-2.61,1.44,1.44,0,0,1,1.68.11,48.7,48.7,0,0,1-7,9.79C246.41,391.06,246.37,390.69,246,390.5Z"/><path d="M250.05,396.5c-1-1-2.13-1.92-3.13-2.94a2.48,2.48,0,0,0-1.83-1c.18-.85.88-.62,1.44-.7.92.89,1.85,1.76,2.76,2.67.33.33.64.57,1.12.36C250.33,395.43,249.8,395.88,250.05,396.5Z"/><path d="M225.32,382.74c-.17,1.17-.31,1.25-1.34.75.24-.08.68,0,.61-.37s-.92-.45-.94-1.23C224.37,381.9,225,381.92,225.32,382.74Z"/><path d="M126,414.46c.4-.17.43-.51.41-.87A6.64,6.64,0,0,1,127.8,416C126.59,415.93,126.51,415,126,414.46Z"/><path d="M215.42,382.87c.35-.72,1.31-.54,1.73-1.16C217.24,383.09,216.25,382.85,215.42,382.87Z"/><path d="M220.43,398.32l-2.19.11A1.66,1.66,0,0,1,220.43,398.32Z"/><path d="M227.12,402.78h-1.86l0-.33C225.93,402.47,226.6,402.21,227.12,402.78Z"/><path d="M243.6,381.66a.34.34,0,0,1-.26.42Z"/><path d="M221.78,398.8a.45.45,0,0,1-.57-.22A.49.49,0,0,1,221.78,398.8Z"/><path d="M212.48,324.83a43.22,43.22,0,0,0-10.13,2.77,44.42,44.42,0,0,0-11.21,7.21,1,1,0,0,0,0,1.67q3.72,3.72,7.46,7.42c.56.56,1,.33,1.5-.14a20.06,20.06,0,0,1,3.85-2.9,24.62,24.62,0,0,1,12-3.71c.5,0,1,.05,1.44-.38l-.08,1.41a23.63,23.63,0,0,0-17.18,6.92l2.36,3.05-.58.06c-.89-.38-1.35-1.28-2.14-1.79-.31-.2-.68-.55-.91-.2-.61.89-2.06,1.31-1.63,2.79-.54,0-.63-.68-1.09-.83.63-.81,1.24-1.63,1.88-2.43.32-.4.42-.75,0-1.15-2.5-2.47-5-5-7.48-7.41a1.1,1.1,0,0,0-1.84.08,46.11,46.11,0,0,0-6.85,10.44.86.86,0,0,0,.35,1.3h-2.44a3.05,3.05,0,0,0,1.32-1.69,36.62,36.62,0,0,1,6.79-10.41c.5-.55,1.45-1.2.48-2-2.39-1.95-4.28-4.38-6.55-6.44-.92-.83-1.36-.65-2.08.18a67.54,67.54,0,0,0-5.7,7.5,56.25,56.25,0,0,0-5.75,12.5l-.87-.07a49.88,49.88,0,0,1,10.66-19.45c2-2.27,2-2.26-.16-4.49-1.63-1.67-3.37-3.25-5-5-.77-.83-1.23-.72-1.94,0a55.78,55.78,0,0,0-7.61,9.63,60.91,60.91,0,0,0-6.59,14.06c-.46,1.46-.84,3-1.33,4.4-.29.85.16,1,.73,1.25a2.59,2.59,0,0,1-1.9-.38,64.85,64.85,0,0,1,9.18-21.26A63.84,63.84,0,0,1,179,311.11a62.72,62.72,0,0,1,29.12-12,1,1,0,0,1,.83.12c.44.67,1.14.35,1.73.46-1.51.3-3,.64-4.52.88a60.49,60.49,0,0,0-19.81,6.94,69.68,69.68,0,0,0-12.74,9.3c-1.07.95-1.06,1,0,2,2,2,4,4.08,6,6.06,1.18,1.14,1.29,1.16,2.49.07a57.59,57.59,0,0,1,6.92-5.41,48.38,48.38,0,0,1,22.54-8l5.7-.53v1.12a51,51,0,0,0-12.6,1.65,47.19,47.19,0,0,0-12.76,5.2,58.63,58.63,0,0,0-10.61,8c2.55,2.4,5,4.68,7.42,7,.77.75,1.3.65,2,0a37.93,37.93,0,0,1,14-8.41,51.84,51.84,0,0,1,5.53-1.29l.05.17C211,325.09,211.77,324.7,212.48,324.83Z"/><path d="M247.79,333.21c.15-1.18.39-2.36.43-3.54a2.24,2.24,0,0,0-1.29-1.93c-.72-.44-1.18,0-1.73.43-1,.8-1.49.59-1.77-.64a1.24,1.24,0,0,1-.05-.44c.36-2.48-1-4.32-2.28-6.19a16.53,16.53,0,0,1-1.67-4l.08-.69.78.4c.27.49.57.5.88,0l.84-.24a3.22,3.22,0,0,0,1.07-.06,4.82,4.82,0,0,1,4.77.59c.53.35,1,.9,1.73.83a4.07,4.07,0,0,1,2.8,2.8,30.45,30.45,0,0,0,2.48,4.29c.18.51.93.66.85,1.33,1.48,3,4.08,5.2,6.21,7.72a25,25,0,0,1,3.15,4.11.49.49,0,0,0,.33.55v0a.41.41,0,0,0,.26.45v.76c-.38,0-.68.11-.63.59l.13,1.7c-.39,0-.82,0-1.07.37a1.5,1.5,0,0,1-2.42.42,11.86,11.86,0,0,1-2.36-2.23,8.5,8.5,0,0,0-3.1-2.61c-1-.5-2.34-.8-2.87-1.87a4.51,4.51,0,0,0-3.4-2.36C249.24,333.57,248.41,333.72,247.79,333.21Z"/><path d="M248.28,339.81c-1,0-1.13-.73-1.35-1.44-.28-.91-.58-1.81-1.71-2l-.55-.56c0-1.23-1.43-1.23-1.75-2.16a.75.75,0,0,0-.73-.49.62.62,0,0,1-.22-.28,2.36,2.36,0,0,0-1-2.71,17.4,17.4,0,0,1-1.93-3.94l.9-.12a9,9,0,0,0,3.91,3.29,3.29,3.29,0,0,1,2.13,2.85c.16,1.48.23,1.47,1.85.93.55.85-.44,1.41-.4,2.15s-.56,1.83,1.08,1.57c.5-.08.67.66.77,1.16l-.08.43,0,.8A1,1,0,0,1,248.28,339.81Z"/><path d="M240.94,330.17a2.36,2.36,0,0,1,1,2.71c-2.09-1.31-4.1-2.77-6.28-3.91a33.71,33.71,0,0,0-12-3.85,6.68,6.68,0,0,1-1-.29c.87-.19,1.86.36,2.63-.43a30.48,30.48,0,0,1,9.08,2.81c.74.36,1.45,1,2.4.72l0,0C237.87,329.19,239.09,330.26,240.94,330.17Z"/><path d="M239.52,316.16l-.08.69a63.36,63.36,0,0,0-17-4.61c-1.37-.17-2.77-.13-4.15-.19l0-.87.88.05c1.16.67,2.4.29,3.61.27a41,41,0,0,1,14.18,3.37c.68.27,1.36.52,2,.78l.51.31A.13.13,0,0,1,239.52,316.16Z"/><path d="M234.56,344.23a32,32,0,0,0-11.43-5.74c.39-.58-.52-.48-.46-.88a23.27,23.27,0,0,1,12.41,6.15Z"/><path d="M244.68,335.82l.55.56c-2.67,2.89-5.44,5.68-8.35,8.33-.54-.07-1.18.12-1.45-.61.89.24,1.3-.43,1.81-.94Q241,339.48,244.68,335.82Z"/><path d="M265.76,349c.32-.24,1-.23.85-.8-.52-2.07-.81-4.25-2.5-5.82.26-.42.68-.35,1.07-.37a13.74,13.74,0,0,1,2.46,6.19C267.12,348.73,266.65,349.36,265.76,349Z"/><path d="M212,298.73a6.06,6.06,0,0,1,3.18-.35c2.5,0,5-.35,7.51.35Z"/><path d="M217.31,299.77l-4.36-.11C214.41,299.22,215.88,298.87,217.31,299.77Z"/><path d="M222.66,299.65h-4.42A5.8,5.8,0,0,1,222.66,299.65Z"/><path d="M218.27,337.12c1.47.11,3-.14,4.39.49C221.2,337.41,219.63,338.14,218.27,337.12Z"/><path d="M214.3,323.82c.94-.51,2-.18,3-.42C216.41,324.37,215.32,323.87,214.3,323.82Z"/><path d="M218.25,323.5a6.24,6.24,0,0,1,2.63.28C220,323.94,219.06,324.26,218.25,323.5Z"/><path d="M215.56,324.63a6,6,0,0,1-2.59.17A2.52,2.52,0,0,1,215.56,324.63Z"/><path d="M222.65,324a4,4,0,0,1,2.64.43C224.4,324.31,223.44,324.68,222.65,324Z"/><path d="M210.35,324.48l-.05-.17a3.59,3.59,0,0,1,2.22-.33C211.91,324.64,211.06,324.26,210.35,324.48Z"/><path d="M221.21,338.21a1.33,1.33,0,0,1-1.19-.14A2,2,0,0,1,221.21,338.21Z"/><path d="M257.53,348.55l1.4.46C258.4,349.08,257.82,349.27,257.53,348.55Z"/><path d="M220.47,324.75l-.93-.07A.57.57,0,0,1,220.47,324.75Z"/><path d="M153.28,349l1-.38C154.07,349.09,153.69,349.09,153.28,349Z"/><path d="M218.72,324.64l-.48.18C218.31,324.52,218.46,324.43,218.72,324.64Z"/><path d="M217.33,324.89l-.35-.33C217.27,324.5,217.33,324.66,217.33,324.89Z"/><path d="M135.69,348.9l.65.13-.66,0Z"/><path d="M166.49,349l.52-.12Z"/><path d="M168.41,348.86l.6.18Z"/><path d="M326.75,349.08l.39,0a.46.46,0,0,1-.42.37A4.07,4.07,0,0,0,326.75,349.08Z"/><path d="M232.44,442.16c-.05-2.91-1-5.62-1.87-8.36a.47.47,0,0,0-.5-.43,13.82,13.82,0,0,1,5.29-1.37,4.48,4.48,0,0,1,4.54,3.88c.57,2.64-.26,4.29-2.7,5.39l-.52,0c1.37-2,1-4,.32-6.07a3.75,3.75,0,0,0-1.62-2,1.76,1.76,0,0,0-1.88,0c-.55.34-.25.94-.14,1.41.44,1.92.95,3.83,1.34,5.76.2,1,.88,1,1.62,1l0,.32,0,.16-1.25,0C234.15,441.54,233.36,442.24,232.44,442.16Z"/><path d="M147.57,393.67a22.38,22.38,0,0,0,4.82.13c1.3,0,2.32.17,2.56,1.7.09.56.69,1,.61,1.71-1.9-1.11-3.26.49-4.75,1s-3.53.63-4.13,3l-1.8-4.24c1.65,1,2.68-.22,3.88-.59a10.07,10.07,0,0,0,3.51-1.93c-2.21,0-4.42,0-6.62,0-.42,0-.9.15-1.26-.15s0-.48.21-.68A2.66,2.66,0,0,0,147.57,393.67Z"/><path d="M226,439.61a2,2,0,0,0-1.59-.52c-.58.17-.51.49-.19.86a7.54,7.54,0,0,0,.24,1.07c.24.63-.12,1.72.87,1.79a3.33,3.33,0,0,0,2.86-.79,12.61,12.61,0,0,0,1-1.88c.51.69.23,1.27.28,1.79.09.93-.42,1.28-1.27,1.41a46.11,46.11,0,0,1-6.34.56c.64-3.19-.51-6.17-.71-9.23a1.82,1.82,0,0,0,1-.41,2.23,2.23,0,0,1,1.63.37l.16,3.58a1.79,1.79,0,0,0,1.74-.89l.52,0,.25,2.19Z"/><path d="M266.61,414.32c.5-1.59,2-2.34,2.9-3.62.76,2.83,3.36,3.88,5,5.78a1.92,1.92,0,0,0,2.43.58c-1.13,1.25-1.67,2.56-3.1,3l0,0a2.25,2.25,0,0,0-.71-1.55c-1.51-1.37-3-2.72-4.47-4.17-.77-.79-1.37-.61-2.08-.07Z"/><path d="M205.55,433.38c1.48-.35,2.85.21,4.15.41-1.21,1.62-1.27,3.5-1.45,5.28-.14,1.36-.86,2.85.32,4.26-1.37.42-2.63-.48-4.1-.31.38-.46.81-.73.87-1.07.4-2.37.72-4.76,1.07-7.14.1-.7-.49-1-.84-1.45Z"/><path d="M152.09,409.07c-2.41-1.16-2.91-3.22-2.52-5.6.35-2.12,2-3.08,3.78-3.77,2-.77,3.51.16,4.89,1.47.07.07,0,.28,0,.42h0a6.81,6.81,0,0,0-6.33,2.14c-1.91,1.87-1.73,3.27.57,4.56Z"/><path d="M164.14,409.45a6.61,6.61,0,0,1,1.55,1.83,4.34,4.34,0,0,1-.66,5.63,4.88,4.88,0,0,1-6,1,3.88,3.88,0,0,1-2.54-2.67h.92c1.28,2,1.92,2.15,3.85,1.1a9.51,9.51,0,0,0,2.4-1.91c1.47-1.57,1.4-3.08-.11-4.51Z"/><path d="M186.08,437.73c-2.13-1.61-2.28-2-1.43-4.35.45-1.23,1-2.45,1.46-3.66a2.67,2.67,0,0,0-.06-2.84l4,1.66c.05.48-.35.34-.53.46-1.28.84-3.38,6.58-2.93,8.05,0,.11.21.18.32.26C186.77,437.7,186.41,437.68,186.08,437.73Z"/><path d="M173.26,430.65,170.85,429c2.8-2,3.89-5.09,5.85-7.83l3.08,1.84c-2.12.21-2.59,1.84-3.34,3.11s-2,2.51-2.36,4.12A.94.94,0,0,0,173.26,430.65Z"/><path d="M278.77,401.08c-.57-.35-1.11.16-1.84.08.61-1.79,1.36-3.18,3.54-3.17a20.83,20.83,0,0,0,3-.41l.53-.06.62-.14a.42.42,0,0,0,.62-.24h0l.93-.47,3.07,1.56,0,.41-7.58,1.56A3.58,3.58,0,0,0,278.77,401.08Z"/><path d="M280.88,412.16c-.82,2-2.58,1.91-4.24,1.77a5.12,5.12,0,0,1-4.45-4.17,4.69,4.69,0,0,1,2.94-5.54q0,.44,0,.88c-2.18,1.37-2.4,2.79-.64,4.55s3.65,3.19,6.37,2.5Z"/><path d="M244.75,431.53c-.35-.9-.76-1.74-1.87-1.82,1.76-1.61,3.46-1.31,5.21-.22,1,.64,2.15,1.16,3.23,1.73.45.61,1.1.3,1.67.37a11.35,11.35,0,0,1,1.45,3.44,90.78,90.78,0,0,1-8.41-4C245.21,430.12,245.18,431.39,244.75,431.53Z"/><path d="M198,431.55c1.72.77,1.5,2.74,2.45,4a6.94,6.94,0,0,1,.7,2.06,1.18,1.18,0,0,0,1.15,1,20,20,0,0,1-1.08,4c-1.59-3-2.87-5.91-4.13-8.83,0-.55-.72-.52-.88-1,.14-.67-.31-1.17-.54-1.73A4.38,4.38,0,0,0,198,431.55Z"/><path d="M167.15,421.53a.48.48,0,0,1-.2.31l-.33.38-.84,1c-.47.11-.48.85-1.07.78l-2.25-2c2.11,0,2.75-1.81,3.79-3s2.57-2.2,2.83-4c1,.14,1.25,1.16,2,1.65v.71l-2.18,2.31c-.58.28-.46.8-.45,1.29h-.54C167.48,421,167.21,421.11,167.15,421.53Z"/><path d="M291.17,390l-.64-.31a.22.22,0,0,0-.32,0,17.6,17.6,0,0,0-3.31,2.48,3,3,0,0,1-5.08-2c-.07-.42.27-.65.42-1l.7,0c.2,1.84,1,2.23,2.4,1.17.63-.47,1.16-1.09,1.76-1.6,2.08-1.74,4-1.26,5.1,1.25Z"/><path d="M157.41,415.26h-.92l-.46-.44-1.32-1.31,0,0c.36,0,.8,0,1.07-.13a41.14,41.14,0,0,0,6.06-5.24c.16-.16.08-.56.13-1a1.55,1.55,0,0,1,1.24,1.26c0,.23,0,.51.35.29a.85.85,0,0,1,.61.7l-.58.48C161.55,411.76,159.58,413.62,157.41,415.26Z"/><path d="M262.3,417.82l.45-.4a4.63,4.63,0,0,1,2.1.5c1.3,1.49,2.66,2.92,3.86,4.48a2.65,2.65,0,0,0,1.88,1c-.61,1.15-1.86,1.47-2.53,2.5-1.41-2.76-3.74-4.57-5.38-6.92Z"/><path d="M152.09,409.07l.43-.8.6,0c.56-.09,1.21.14,1.6-.48.6-.4,1.21-.77,1.79-1.2,2.42-1.76,2.63-2.37,1.76-5h0c1.85.85,1.53,2.65,1.51,4.09C159.73,408.88,154.73,411.53,152.09,409.07Z"/><path d="M261.62,428.87l-.6-.54c-.4-.46-.93-.31-1.43-.31l.11-.42a.46.46,0,0,0-.44-.43l-2.16-1.29-.81-.09-.53-3.38c3.29,1.74,6,4.08,9.34,5.55-.27.71-1.06.89-1.57,1.35C262.82,429.49,262.27,429,261.62,428.87Z"/><path d="M216.41,435.08c.08,2.74-.41,5.47-.17,8.21a1.4,1.4,0,0,1-1,.61,5,5,0,0,1-1.76-.06,35.9,35.9,0,0,0,.39-9.18A3.5,3.5,0,0,1,216.41,435.08Z"/><path d="M275.14,405.1q0-.44,0-.88c2.88-1.19,4.51-.73,6.6,1.84a.8.8,0,0,0,.13.27,1.29,1.29,0,0,1,.35,1,2.1,2.1,0,0,0-1.08,1.68C279.54,407.06,277.74,405.47,275.14,405.1Z"/><path d="M147.57,393.67a2.66,2.66,0,0,1-3,0c.21-.65.85-.9,1.27-1.36a.53.53,0,0,0,.42-.47h0a.49.49,0,0,0,.44-.45l.41-.42a.49.49,0,0,0,.44-.45h0A.46.46,0,0,0,148,390a.55.55,0,0,1,.25-.26.84.84,0,0,0,.68-1h0c1.14,0,1.41-.77,1.35-1.74l.91-.44c0,.15,0,.34.06.43,1.3,1.59.47,2.63-.81,3.72A40.35,40.35,0,0,0,147.57,393.67Z"/><path d="M198,431.55a4.38,4.38,0,0,1-2.34-.42,1.81,1.81,0,0,0-2.46,1.43,22.47,22.47,0,0,1-1.6,3.59c-1.41,2.67-2.62,3-5.49,1.58.33,0,.69,0,.85-.42,2.44.72,3.13.38,4.1-2a21.64,21.64,0,0,1,1.47-3.41c.55-.87.27-1.47-.4-2.31,1.31,0,2.07.74,3,1A6.93,6.93,0,0,1,198,431.55Z"/><path d="M256.3,425.79l.81.09c-.17,1,.43,1.91.51,2.94l2-.8c.5,0,1-.15,1.43.31-1.07-.14-1.7.7-2.52,1.14-.64.35-.66.89-.58,1.5.1.86.79.68,1.4.71-.24,1.3-1.51,1.25-2.26,1.94C257.42,430.9,256.13,428.42,256.3,425.79Z"/><path d="M278.77,401.08a3.58,3.58,0,0,1,2.9-.88l-1.42.53c2.54,2.07,4.67,2.88,6.73,2.47l-1.49,2.65a2.43,2.43,0,0,0-1.4-1.84A38,38,0,0,1,278.77,401.08Z"/><path d="M196.17,432.86c.16.44.84.41.88,1a1,1,0,0,0-.78.93,18.59,18.59,0,0,1-.95,4.24c-.36.9.49,1.27.67,2-1,.17-1.8-.36-3.15-.72a2.87,2.87,0,0,0,1.86-2.49C195.14,436.16,195.67,434.51,196.17,432.86Z"/><path d="M244.75,431.53c.43-.14.46-1.41,1.28-.46-.28.17-.46.43-.32.73.68,1.46,1.45,2.88,2.08,4.36.32.75,1.14.53,1.68,1.11-.76.76-1.75.89-3.13,1.45,1.11-1.59.5-2.76,0-3.82S245.24,432.67,244.75,431.53Z"/><path d="M223.9,434.63a2.23,2.23,0,0,0-1.63-.37l-.6-.11c1.7-.54,3.5-.3,5.22-.73,1-.24,1.58.16,1.52,1.26,0,.53.42,1.11-.06,1.66C226.43,434.42,226.43,434.42,223.9,434.63Z"/><path d="M291.17,390l1,0c.75.75.18,1.44,0,2.2-.29,1-1.47,1.44-1.36,2.64,0,.52-.48.46-.8.33-.74-.28-1.45-.62-2.45-1.07,1.51-.51,3-.52,3.79-1.84A2.3,2.3,0,0,0,291.17,390Z"/><path d="M253,431.6c-.57-.08-1.22.23-1.67-.37.1-.1.3-.22.29-.3-.22-1.75-.76-3.3-2.58-4.07.41-1,1.37-1,2.36-1.35a5.36,5.36,0,0,0,.85,4.08A4,4,0,0,1,253,431.6Z"/><path d="M202.26,438.63a1.18,1.18,0,0,1-1.15-1c.14,0,.38.06.42,0a10.29,10.29,0,0,0,1.24-3.6c.1-.67-.76-.86-.74-1.7l3.52,1.06v0a2.53,2.53,0,0,0-2.42,2.6A4.18,4.18,0,0,1,202.26,438.63Z"/><path d="M173.26,430.65a.94.94,0,0,1,.81-.41c.43.28.87.54,1.27.85a2.57,2.57,0,0,0,3.06.14c.36-.2.57-.72,1.14-.41,0,.74-.72,1-1,1.58-.56,1-1.29,1-2.17.31S174.29,431.34,173.26,430.65Z"/><path d="M286.2,396.68l-.93.47a10.26,10.26,0,0,0-2.59-1.62,2.27,2.27,0,0,0-3,.33,9.56,9.56,0,0,1,1.62-3.25,3.86,3.86,0,0,0,2.66,2.7A5.5,5.5,0,0,1,286.2,396.68Z"/><path d="M221.67,434.15l.6.11a1.82,1.82,0,0,1-1,.41c-.68-.08-1.35-.17-1.37.86,0,.4.17.9-.5,1.24-.69-1-1.35-2.26-3-1.7a3.5,3.5,0,0,0-2.58-.42l0,0,0-.54C216.45,434,219.06,434.43,221.67,434.15Z"/><path d="M142.94,392.18c-.73-1.23-.82-2.14-1.36-3,1.22.75,2.25.28,3.28-.2a8.31,8.31,0,0,1,1.18-.57c.36-.1.91-.51,1.11.1s-.43.65-.81.81c-.67.29-1.34.59-2,.85S143.12,390.93,142.94,392.18Z"/><path d="M164.72,424c.59.06.6-.68,1.07-.78.67,2.08,1.63,2.52,4.73,2.15.07.46-.34.61-.58.84-1.32,1.22-1.34,1.23-2.65.11C166.41,425.54,165.57,424.75,164.72,424Z"/><path d="M168.41,421c0-.49-.14-1,.45-1.29-.08.81.39,1,1.07.95s.84-.87,1.73-.41L168.4,424C168.22,422.73,169.26,421.8,168.41,421Z"/><path d="M264.85,417.92a4.63,4.63,0,0,0-2.1-.5,14.06,14.06,0,0,1,3.85-3.1h0c-.14.84.91,1.08.93,1.95-.52.27-1-.18-1.54-.14C264.77,416.19,264.57,416.49,264.85,417.92Z"/><path d="M171,417.35v-.71a7.27,7.27,0,0,1,2,1.51c1.8,1.63,1.82,1.61-.24,3.68A3.85,3.85,0,0,0,171,417.35Z"/><path d="M262.3,417.82l.38,1.13c-1.6.52-1.68.69-1.38,2.87-1.89-.78-2.07-1.45-.71-2.69A5.13,5.13,0,0,1,262.3,417.82Z"/><path d="M282.92,389.27l-.7,0c-.13-.71.44-1,.82-1.46s.31-1.11.74-1.67c.81.38,1.79.36,2.69,1.17C285,387.62,283.57,387.82,282.92,389.27Z"/><path d="M281.13,409a2.1,2.1,0,0,1,1.08-1.68,3.75,3.75,0,0,1-1.33,4.86h0C281,411.1,281.82,410.1,281.13,409Z"/><path d="M213.84,434.15l0,.54c-1.48-.3-2.19.72-2.77,1.85-.56-.51-.32-1-.35-1.37-.05-.84.36-1.19,1.19-1.13C212.53,434.1,213.19,434.12,213.84,434.15Z"/><path d="M150.31,387c.05,1-.21,1.7-1.35,1.74-.94-1.23-.93-1.24.86-1.8Z"/><path d="M232.44,442.16c.91.08,1.7-.62,2.64-.42a2.71,2.71,0,0,0-.13.37c-.91.21-1.82.45-2.74.63-.49.1-.17-.21-.1-.31A1.4,1.4,0,0,1,232.44,442.16Z"/><path d="M261.62,428.87c.64.12,1.2.63,1.92.44l-1.65,1.33A3,3,0,0,0,261.62,428.87Z"/><path d="M208.1,427.59h3.45l0,.32L209,428l-.9-.09q0-.18,0-.35Z"/><path d="M150.31,387l-.5-.06c.13-.17.25-.35.39-.51s-.07-1,.58-.94.45.64.44,1.06Z"/><path d="M273,396.29l.47.52c-.22.7-.34,1.49-1.4,1.23A2.77,2.77,0,0,1,273,396.29Z"/><path d="M215.2,443.89a1.4,1.4,0,0,0,1-.61c.29.18.82.38.81.54,0,.51-.52.3-.83.27A7.31,7.31,0,0,1,215.2,443.89Z"/><path d="M226,439.61l.53-.12c.23.48.7.94.13,1.52C226,440.75,226.17,440.11,226,439.61Z"/><path d="M226.32,437.29l-.52,0a.78.78,0,0,1,0-.22c0-.34-.1-.93.38-.84S226.61,436.88,226.32,437.29Z"/><path d="M206.34,427.58a1.1,1.1,0,0,1,1.76,0h0l-1.41.06h-.18Z"/><path d="M149,388.75a.84.84,0,0,1-.68,1C148.42,389.34,148.45,388.87,149,388.75Z"/><path d="M234.95,442.11a2.71,2.71,0,0,1,.13-.37l1.25,0C236,442.24,235.45,442.17,234.95,442.11Z"/><path d="M230.08,433.37a.47.47,0,0,1,.5.43,5.28,5.28,0,0,1-.59-.12,1,1,0,0,1-.26-.2Z"/><path d="M206.69,427.65l1.41-.06q0,.18,0,.35A1.56,1.56,0,0,1,206.69,427.65Z"/><path d="M167.15,421.53c.05-.42.33-.57.72-.6Z"/><path d="M224.27,440c-.32-.37-.4-.69.19-.86Z"/><path d="M236.3,441.63l0-.32.17-.1.19,0,.52,0A.83.83,0,0,1,236.3,441.63Z"/><polygon points="154.71 413.51 154.67 413.41 154.69 413.54 154.71 413.51"/><path d="M146.28,391.81a.53.53,0,0,1-.42.47A.51.51,0,0,1,146.28,391.81Z"/><path d="M146.74,391.34a.49.49,0,0,1-.44.45A.55.55,0,0,1,146.74,391.34Z"/><path d="M281.87,406.34a.8.8,0,0,1-.13-.27Q282,406.14,281.87,406.34Z"/><path d="M148,390a.46.46,0,0,1-.42.47A.57.57,0,0,1,148,390Z"/><path d="M290.2,389.73a.22.22,0,0,1,.32,0l-.16.06Z"/><path d="M273.8,420.07l-.11.31c-.3-.28.06-.21.15-.28Z"/><path d="M166.62,422.22l.33-.38A.38.38,0,0,1,166.62,422.22Z"/><path d="M147.59,390.47a.49.49,0,0,1-.44.45A.54.54,0,0,1,147.59,390.47Z"/><path d="M284,397.53l-.53.06A.34.34,0,0,1,284,397.53Z"/><path d="M285.28,397.15a.42.42,0,0,1-.62.24Z"/><path d="M156,414.82l.46.44A.53.53,0,0,1,156,414.82Z"/><path d="M163.53,408.75c-.38.22-.34-.06-.35-.29Z"/><path d="M211.45,402.4a1.25,1.25,0,0,1,1.11,0Z"/><path d="M166.19,394.09a2.85,2.85,0,0,1,.42.09.62.62,0,0,1,.43.84.4.4,0,0,1-.31.23c-.45,0-.58-.35-.55-.75,0-.14,0-.29,0-.43Z"/><path d="M166.22,394.06a2.19,2.19,0,0,1-.61-.18.59.59,0,0,1-.25-.74.42.42,0,0,1,.3-.23c.34,0,.5.25.56.54a2.84,2.84,0,0,1,0,.64Z"/><path d="M250.05,396.5c-.25-.62.27-1.07.35-1.61a5.49,5.49,0,0,1,1-3.27c.64-.92.88-.92,1.56.06,1.06,1.53,1.87,3.13,1.07,5.06a.33.33,0,0,0-.14.32l-.2.48c-.23.08-.57.09-.31.48l.13.9-1,.07Z"/><path d="M253.42,398c-.26-.4.08-.4.31-.48A.4.4,0,0,1,253.42,398Z"/><path d="M253.93,397.05a.33.33,0,0,1,.14-.32Q254.19,397,253.93,397.05Z"/><path d="M222.22,383c-.06.33,0,.78-.54.74-.09,0-.23-.2-.23-.3,0-.58.47-.39.79-.42Z"/><path d="M218.68,294.79a3.83,3.83,0,0,1-1.75-.08l-.33-.33c-1.13-1.08-1.69-2.71-3.38-3.67-.24,1.61-.4,3,.84,4.31h-3.64a13.1,13.1,0,0,0,.23-4.8c-.05-1.61.24-3.32-1.19-5,2.12,0,4-.06,5.87,0a2.69,2.69,0,0,1,2.81,2,2.42,2.42,0,0,1-1.37,2.92c-.11.06-.15.23-.29.46l2.61,3.4Zm-5.79-6.88c.33.67-.56,2,1.09,2a1.77,1.77,0,0,0,1.87-1.91c0-1.37-.64-2.06-1.91-2.06C212.4,286,213.11,287.15,212.9,287.91Z"/><path d="M200.16,287.06l.49-.14c.59.1,1.31-.26,1.74.46l.47,2.8c0,.29.12.59.47.65a.72.72,0,0,0,.85-.51c.17-.47.32-1,.56-1.7.91,1.53.48,3.09,1.14,4.49-.3-.06-.47,0-.53-.1-.51-.58-.92-1.69-1.8-1.22s-.2,1.47,0,2.2c.35,1.71.61,1.76,2.23,1.24a3.26,3.26,0,0,0,2.38-2.45c.3,0,.36.06.36.26,0,2.47,0,2.51-2.32,2.89a33.05,33.05,0,0,0-5.18,1,24.76,24.76,0,0,0-1.27-9.17Z"/><path d="M172.34,299.07l3.23-2a23.29,23.29,0,0,0,5.43,8.2l-3.54,2.22a2,2,0,0,0,0-2.36c-1.09-1.64-2.2-3.28-3.21-5A1.9,1.9,0,0,0,172.34,299.07Z"/><path d="M157,312.9l2.83-3.07c-.32,1,.14,1.57.86,2.16,1.52,1.26,3,2.56,4.42,3.92a3,3,0,0,0,1.68.71,22.93,22.93,0,0,1-2.59,3c0-2.2-1.89-2.84-3.07-3.92S159.07,313,157,312.9Z"/><path d="M179.3,296.25l-1.25-.41c1.32-1.46,2.22-1.73,3.85-1s3.33,1.48,5,2.22h.94a.41.41,0,0,0,.33.48,10.7,10.7,0,0,1,1.51,3.44L181,297c-.7-.66-.73.26-1.06.46a.63.63,0,0,1-.11-.36C179.9,296.65,179.78,296.33,179.3,296.25Z"/><path d="M163.12,306.75c.41-1.08,1.54-1.41,2.27-2.16l.4.43c1.45,2,3.35,3.7,5,5.61.45.53,1.13.48,1.9.57l-3.43,3.16a2.84,2.84,0,0,0-.94-2.78c-1.36-1.39-2.57-2.94-3.84-4.42C164.12,306.61,163.61,306.73,163.12,306.75Z"/><path d="M267.8,306.69l.35-.37a.5.5,0,0,0,.38-.44,1.54,1.54,0,0,0-.06-2c2.68,1.63,2.78,1.81,2.56,4.49-.12,1.52-.27,3-.41,4.56-.64.48.05.86.1,1.29l-2.7,2.85c0-3.66.71-6.9.5-10.16Z"/><path d="M280,327.85l-.63.45a.71.71,0,0,0-.71.4l-.1.08-.76.9c-.59-1.17-1.7-2.08-1.75-3.53l0,0a1.58,1.58,0,0,0,2,.11c1.83-1.06,3.65-2.15,5.5-3.18a1.31,1.31,0,0,0,.73-1.49c1.13,1,1.41,2.44,2.44,3.85a2.93,2.93,0,0,0-3.22.49,29.05,29.05,0,0,1-2.68,1.47A.84.84,0,0,0,280,327.85Z"/><path d="M251.78,303.64a5.34,5.34,0,0,1-3-1.33,20.67,20.67,0,0,0,4.52-8.64l3.2,1.65c-1.95,1.2-2.39,3.27-3.35,5-.59,1-1.54,2-1.41,3.38Z"/><path d="M222.23,287.34c.17-.8-.52-1.28-.82-2.06,1.78-.28,3.09-.1,4,1.73.7,1.49,1.85,2.78,2.6,4.28.19.42.58.42.95.45l-.27,3.84-.48.14-5.07-7.92C222.94,287.39,222.58,287.36,222.23,287.34Z"/><path d="M155.62,315.13a2.16,2.16,0,0,0,.88,1.42c1.52,1.1,3,2.29,4.46,3.43a2.25,2.25,0,0,0,2.4.39,10.76,10.76,0,0,1-2,2.71l-.63,0a58.87,58.87,0,0,0-7.3-5.6c.74-.69.84-2,2.17-2.29Z"/><path d="M234.95,290.86a14.22,14.22,0,0,1,2.73-3.25c.81,3.6.88,7.12,2,10.54-1.42.37-2.51-.46-3.86-.84,1.3-.36.85-1.27.92-2a.78.78,0,0,0-.72-.9c-.21,0-.41-.11-.62-.16.11-.35.5-.21.7-.4a1.77,1.77,0,0,0,.23-.34l-.4-2.33C235.7,290.79,235.31,290.86,234.95,290.86Z"/><path d="M153.35,328.81c1.18.25,2,1.61,3.63,1.06l-2,3.51c-.72-1.89-2.47-2.39-3.9-3.15s-2.61-2.49-4.94-1.49l1.8-2.65a3.36,3.36,0,0,0,1.71.52l.65.48a.85.85,0,0,0,.76.42l.11,0Z"/><path d="M192.26,289.22a.37.37,0,0,1,.37-.15c1-.11.78,1.25,1.58,1.41q.87,2.69,1.75,5.38c.27.83.34,1.85,1.77,1.69-1.35.92-2.81.95-4.23,1.5a2.18,2.18,0,0,0,.31-1.93c-.78-2.18-1.4-4.41-2.09-6.62Z"/><path d="M247.83,292.25c-.84,2.1-1.64,4.21-2.55,6.28a3.27,3.27,0,0,0-.16,2.06l0,0c-1.35-.08-2.32-1.12-3.71-1.33,2-.59,1.93-2.51,2.49-3.83s1.53-2.84,1.55-4.5l.78-.2a.22.22,0,0,1,.22.09c.32.54.82.54,1.35.46h0Z"/><path d="M276,326.16a6.38,6.38,0,0,1-1.23-1.22c-.46-.82-1.37-1.32-1.61-2.37a1.2,1.2,0,0,0,1.52-.82l1.18-1.91c0-1,1-1.52,1-2.49.47-.27,1-.43,1.31-.93a4,4,0,0,1,2.28-.58c-1,1.81-1.84,3.5-2.74,5.18-.48.89-1,1.76-1.49,2.65a3.06,3.06,0,0,0-.25,2.53Z"/><path d="M255.32,305.8a5.64,5.64,0,0,1,1.07-5.93,4.58,4.58,0,0,1,6.74-.17.44.44,0,0,0-.31,0c-.93-.14-1.95-.43-2.71.25-2,1.8-4,3.66-3.35,6.77h-.53l-.16.06a.45.45,0,0,0-.37-.4l0-.05A.55.55,0,0,0,255.32,305.8Z"/><path d="M153.35,328.81l-2.14-1.26c.42,0,.86,0,.81-.59s-.11-1.09-.17-1.64h.58c2.13.29,4.19-.25,6.27-.52a2.82,2.82,0,0,0,2.07-1.74l.63,0c-.68,1.26-1.84,2.19-2.41,3.54-.4.95-.82,1.68-2.24,1-.95-.48-2.27.1-3.38.37C152.81,328.1,153.21,328.52,153.35,328.81Z"/><path d="M264.61,301a3.58,3.58,0,0,1,0,4.4v.52a.91.91,0,0,1-.5.84.51.51,0,0,0-.4.45h0a.84.84,0,0,0-.92.77l-.1.05c-1-.12-2.19.58-3-.52,2.27-1.58,4.07-3.46,4.14-6.45Z"/><path d="M236.33,293.52a1.77,1.77,0,0,1-.23.34c-.2.18-.59,0-.7.4.21.05.41.12.62.16a.78.78,0,0,1,.72.9c-.67-.66-1.63-.59-2.41-1a1.27,1.27,0,0,0-1.72.44c-.48.64-.07,1.06.36,1.5.06.06,0,.25,0,.55l-2.89-.87c2.07-1.45,3.07-3.64,4.86-5.11.37,0,.76-.08,1,.33-1.18.2-1.33,1.33-2.21,2.16A5.66,5.66,0,0,0,236.33,293.52Z"/><path d="M222.23,287.34c.36,0,.72,0,.86.47a11.07,11.07,0,0,0-.31,7.28c-1.41.21-2.74-.34-4.09-.3l.43-.81c1.85.55,2,.44,2.2-1.32S221.37,289,222.23,287.34Z"/><path d="M278.2,316.41c-.3.5-.84.66-1.31.93L274,318c0,.81,1,1.15.76,2l-.1.1c-.27-.24-.54-.48-.8-.73-.44-.42-.58-1.27-1.5-1a1.46,1.46,0,0,0-1.12,1.84,4.7,4.7,0,0,1-1.64-2.35C272.67,318.14,275.26,316.32,278.2,316.41Z"/><path d="M180,297.43c.33-.2.36-1.11,1.06-.46.44,2.43,1.17,4.68,3.49,6.22l-2.5,1.48c1-2.42-.81-3.74-1.33-5.46C180.51,298.61,179.92,298.14,180,297.43Z"/><path d="M267.8,306.69l.73.24c-1.08,1.09-2.11,2.24-3.25,3.26-.87.78-1.55,1.52-1.1,2.85L262,311a4,4,0,0,0,3-1.59A12.69,12.69,0,0,1,267.8,306.69Z"/><path d="M228.9,291.75c-.37,0-.76,0-.95-.45,1-2.25,1-4-.08-5.36.48-.4,1,0,1.45,0a1.93,1.93,0,0,1,1.42.31,2.64,2.64,0,0,0-1.12,2.55A5.06,5.06,0,0,1,228.9,291.75Z"/><path d="M270.73,314.24c0-.43-.74-.81-.1-1.29,1.3-.49,1.92-1.71,2.85-2.6.6-.57-.12-1.23.13-1.94a7.92,7.92,0,0,1,2.43,2.27c-1.55-.27-2.23.53-3,1.32S271.52,313.5,270.73,314.24Z"/><path d="M277.79,329.68l.76-.9c.41,2.69,1.08,3.21,4.23,3.35,0,.13,0,.34-.1.38-2.9,1.46-2.92,1.45-4.3-1.42C278.16,330.63,278,330.15,277.79,329.68Z"/><path d="M152.44,325.31h-.58c-.2-.62-.43-1.24-.59-1.87-.11-.45-.17-.85-.8-.76s-.69-.37-.4-.64c.68-.65.71-1.75,1.81-2.41Z"/><path d="M187.83,297h-.94c-.48-1.78-.93-3.58-3-4.51a10.05,10.05,0,0,1,2.59-1.18,3.56,3.56,0,0,0,.6,3.49A3.5,3.5,0,0,1,187.83,297Z"/><path d="M202.4,287.38c-.43-.72-1.15-.36-1.74-.46a17.66,17.66,0,0,1,5.1-1c.6-.07,1,.18,1,.83s.39,1.08.14,1.69C205.17,286.95,205.17,286.95,202.4,287.38Z"/><path d="M192.26,289.22l-.53,1.28c-1.7-.14-2.22.94-2.25,2.39-1-.21-.74-.94-.93-1.43-.33-.81,0-1.21.8-1.42C190.32,289.78,191.29,289.5,192.26,289.22Z"/><path d="M194.21,290.49c-.8-.16-.53-1.52-1.58-1.41.68-.24,1.35-.5,2-.71,2.15-.69,2.16-.68,2.76,1.7-.77.06-1-.73-1.59-.88a1.86,1.86,0,0,0-1.48.12C193.85,289.61,194.3,290.1,194.21,290.49Z"/><path d="M259.61,307.48c.85,1.1,2,.4,3,.52-1.61,1.23-3.36.64-5.06.32-.8-.15-1-1-1.34-1.61h.53C257.71,307,258.44,308,259.61,307.48Z"/><path d="M247.83,292.25v-1a3.25,3.25,0,0,1,1.44.37c2.1,1,2.11,1,.65,3.36C249.76,293.51,249.61,292.11,247.83,292.25Z"/><path d="M165.79,305l-.4-.43a10.08,10.08,0,0,1,.82-1c1.57-1.47,1.85-1.4,3.07,1C167.94,304.07,166.76,304,165.79,305Z"/><path d="M246.26,290.71l-.78.2a3.86,3.86,0,0,0-3.1.57c0-1.9.41-2.26,2-1.74C245,290,245.83,290,246.26,290.71Z"/><path d="M163.12,306.75c.49,0,1-.14,1.32.4-1.68.3-1.82.57-1.52,2.9C161,309.07,160.8,307.82,163.12,306.75Z"/><path d="M149.69,326.6a3.36,3.36,0,0,1-1.71-.52c.16-.41.2-1.12.86-.34C149.1,326.05,149.4,326.32,149.69,326.6Z"/><path d="M200.16,287.06l-.44.71c-.3-.11-.94,0-.85-.33C199,286.89,199.65,286.94,200.16,287.06Z"/><path d="M275.91,319.83l-1.18,1.91a3,3,0,0,0-.07-1.72l.1-.1Z"/><path d="M262.75,308a.84.84,0,0,1,.92-.77A.85.85,0,0,1,262.75,308Z"/><path d="M251.74,303.68c.3,0,.56,0,.64.36,0,0-.09.14-.13.14-.29-.06-.55-.16-.47-.54Z"/><path d="M264.61,301l-.86.06-.33-.67.28-.26A1.77,1.77,0,0,1,264.61,301Z"/><path d="M247.83,291.26c-.53.08-1,.08-1.35-.46A1.81,1.81,0,0,1,247.83,291.26Z"/><path d="M278.65,328.7a.71.71,0,0,1,.71-.4A.67.67,0,0,1,278.65,328.7Z"/><path d="M280,327.85a.84.84,0,0,1,.81-.41A.82.82,0,0,1,280,327.85Z"/><path d="M179.3,296.25c.47.08.59.4.55.82A1.06,1.06,0,0,1,179.3,296.25Z"/><path d="M262.83,299.67a.44.44,0,0,1,.31,0,.53.53,0,0,1,.56.41l-.28.26C263.18,300.18,262.89,300,262.83,299.67Z"/><path d="M151.1,327.51a.85.85,0,0,1-.76-.42A.93.93,0,0,1,151.1,327.51Z"/><path d="M155.65,315.16c0-.17-.06-.35.16-.43,0,0,.07.12.06.14a3,3,0,0,1-.25.27Z"/><path d="M263.68,307.19a.51.51,0,0,1,.4-.45A.5.5,0,0,1,263.68,307.19Z"/><path d="M268.53,305.88a.5.5,0,0,1-.38.44C268.15,306.06,268.3,305.94,268.53,305.88Z"/><path d="M264.57,305.89v-.52a2.24,2.24,0,0,1,.11.37S264.62,305.84,264.57,305.89Z"/><polygon points="245.13 300.59 245.27 300.67 245.15 300.56 245.13 300.59"/><path d="M188.17,297.51a.41.41,0,0,1-.33-.48Z"/><path d="M216.61,294.38l.33.33Q216.59,294.73,216.61,294.38Z"/><path d="M230.83,306.44a10,10,0,0,1-6.48.93c-.26,0-.58-.16-.62-.5a.67.67,0,0,1,.43-.7A9.17,9.17,0,0,1,230.83,306.44Z"/><path d="M223.62,310.16,218.9,308a2.32,2.32,0,0,1,1.85-1.07c1-.21,2-.08,2.15,1.17C223,308.75,223.88,309.13,223.62,310.16Z"/><path d="M249.59,317.72c-.74.08-1.2-.48-1.73-.83a4.82,4.82,0,0,0-4.77-.59,3.22,3.22,0,0,1-1.07.06,2.17,2.17,0,0,1,1.51-.76c1.43-.2,3,.24,4.15-1.11.14-.16.52.1.63.42-.35.22-1.13.21-.43,1s1.44.56,2.19.71C250,317,248.77,316.92,249.59,317.72Z"/><path d="M250.07,316.56c-.76-.14-1.57,0-2.19-.71s.08-.73.43-1C249.19,315.14,250.19,315.26,250.07,316.56Z"/><path d="M222.73,311.5c-1.21,0-2.45.4-3.61-.27A6.77,6.77,0,0,1,222.73,311.5Z"/><path d="M241.18,316.6c-.32.45-.61.45-.88,0C240.62,316,240.91,316.13,241.18,316.6Z"/><path d="M239.47,316l-.51-.31A.44.44,0,0,1,239.47,316Z"/><path d="M265,340.33c0-.47.26-.57.63-.59C265.63,340.12,265.26,340.14,265,340.33Z"/><path d="M265.68,339a.41.41,0,0,1-.26-.45C265.66,338.59,265.77,338.73,265.68,339Z"/><path d="M265.41,338.51a.49.49,0,0,1-.33-.55A.55.55,0,0,1,265.41,338.51Z"/><path d="M242.2,333.16a.75.75,0,0,1,.73.49A.67.67,0,0,1,242.2,333.16Z"/><path d="M236.78,327.93c0-.43-.66-.69-.36-1.15s.76-.33,1.18-.25a1.28,1.28,0,0,1,1.18,1.09c-.62.55-1.41-.13-2,.29Z"/><path d="M239.91,326.11l-.9.12c-.49-.2-.75-.78-.39-1C239.38,324.8,239.74,325.42,239.91,326.11Z"/><path d="M230,316.66c0,.31-.16.42-.42.36s-.56-.16-.66-.46a.32.32,0,0,1,.3-.44A.8.8,0,0,1,230,316.66Z"/><path d="M234.81,325a.63.63,0,0,1,.5.62.4.4,0,0,1-.2.33c-.36.08-.51-.17-.57-.47A.38.38,0,0,1,234.81,325Z"/><path d="M254.57,342c1.1.49,1.64,1.08,1.65,2.06a.63.63,0,0,1-.29.5.6.6,0,0,1-.55-.2A5.44,5.44,0,0,1,254.57,342Z"/><path d="M253,338.76c-.71.22-1-.18-1.32-.59-.16-.23-.31-.56,0-.75a.79.79,0,0,1,.6.11A1.33,1.33,0,0,1,253,338.76Z"/><path d="M254.06,340.59c0,.28,0,.64-.37.6s-.55-.43-.53-.79c0-.17.18-.45.32-.47C254,339.85,254,340.24,254.06,340.59Z"/><path d="M249.16,338.5l.08-.43a1.71,1.71,0,0,1,.08.33S249.22,338.47,249.16,338.5Z"/><path d="M244.51,347.37c-.3-.06-.55-.18-.54-.54,0-.52.94-2.14,1.25-2.12.76.06.92.63.91,1.24A1.5,1.5,0,0,1,244.51,347.37Z"/><path d="M246.73,344.39a12.46,12.46,0,0,1-1.08-1.67c-.17-.36.19-.67.59-.73a1.57,1.57,0,0,1,1.61,1.41C247.93,344.09,247.46,344.24,246.73,344.39Z"/><path d="M153.12,408.23c.44-.48,1-.4,1.61-.48C154.33,408.37,153.67,408.14,153.12,408.23Z"/><path d="M259.7,427.59l-.44-.43A.46.46,0,0,1,259.7,427.59Z"/></svg>